<?xml version="1.0" encoding="UTF-8" standalone="no"?>
<!-- Created with Inkscape (http://www.inkscape.org/) -->

<svg
   width="138.92288mm"
   height="30.699665mm"
   viewBox="0 0 138.92288 30.699665"
   version="1.1"
   id="svg1"
   sodipodi:docname="wyltkm-grotesk.svg"
   inkscape:version="1.3 (0e150ed, 2023-07-21)"
   xmlns:inkscape="http://www.inkscape.org/namespaces/inkscape"
   xmlns:sodipodi="http://sodipodi.sourceforge.net/DTD/sodipodi-0.dtd"
   xmlns="http://www.w3.org/2000/svg"
   xmlns:svg="http://www.w3.org/2000/svg">
  <sodipodi:namedview
     id="namedview1"
     pagecolor="#ffffff"
     bordercolor="#000000"
     borderopacity="0.25"
     inkscape:showpageshadow="2"
     inkscape:pageopacity="0.0"
     inkscape:pagecheckerboard="0"
     inkscape:deskcolor="#d1d1d1"
     inkscape:document-units="mm"
     inkscape:zoom="0.78929574"
     inkscape:cx="214.11493"
     inkscape:cy="316.73806"
     inkscape:window-width="1854"
     inkscape:window-height="1131"
     inkscape:window-x="0"
     inkscape:window-y="0"
     inkscape:window-maximized="1"
     inkscape:current-layer="text1" />
  <defs
     id="defs1">
    <rect
       x="153.68726"
       y="237.31104"
       width="586.005"
       height="224.05258"
       id="rect1" />
  </defs>
  <g
     inkscape:label="Layer 1"
     inkscape:groupmode="layer"
     id="layer1"
     transform="translate(-48.352616,-64.668014)">
    <g
       id="text1"
       style="font-size:64px;line-height:1.05;font-family:Pilowlava;-inkscape-font-specification:Pilowlava;text-align:center;letter-spacing:1.5px;word-spacing:1.5px;text-anchor:middle;white-space:pre;fill:#b2aaff;stroke-width:2.902;stroke-linecap:square;stroke-linejoin:round"
       transform="scale(0.26458333)"
       aria-label="WOULD YOU LIKE&#10;TO KNOW MORE?">
      <path
         style="letter-spacing:2px;fill:#ff5053;fill-opacity:1"
         d="m 183.87602,245.31055 8.256,44.8 h 8.384 l 9.344,-39.552 h 0.64 l 9.408,39.552 h 8.384 l 8.256,-44.8 h -5.376 l -6.976,39.488 h -0.64 l -9.28,-39.488 h -8.128 l -9.344,39.488 h -0.64 l -6.976,-39.488 z m 59.79195,17.28 v 10.24 c 0,11.84 6.848,18.176 17.536,18.176 10.688,0 17.536,-6.336 17.536,-18.176 v -10.24 c 0,-11.84 -6.848,-18.176 -17.536,-18.176 -10.688,0 -17.536,6.336 -17.536,18.176 z m 5.184,-0.256 c 0,-8.256 4.544,-13.312 12.352,-13.312 7.744,0 12.288,5.056 12.288,13.312 v 10.752 c 0,8.256 -4.544,13.248 -12.288,13.248 -7.808,0 -12.352,-4.992 -12.352,-13.248 z m 39.6959,-17.024 v 29.824 c 0,10.496 6.528,15.872 16.448,15.872 9.92,0 16.448,-5.376 16.448,-15.872 v -29.824 h -5.184 v 29.952 c 0,7.36 -4.16,11.072 -11.264,11.072 -7.168,0 -11.264,-3.712 -11.264,-11.072 v -29.952 z m 44.04799,0 v 44.8 h 28.352 v -4.672 h -23.168 v -40.128 z m 36.23999,0 v 44.8 h 13.312 c 11.84,0 18.56,-5.888 18.56,-18.304 v -8.192 c 0,-12.416 -6.72,-18.304 -18.56,-18.304 z m 5.184,4.672 h 8.192 c 8.64,0 13.248,4.224 13.248,13.44 v 8.576 c 0,9.216 -4.416,13.44 -13.248,13.44 h -8.192 z m 56.3158,-4.672 16.128,27.584 v 17.216 h 5.184 v -17.216 l 16.128,-27.584 h -6.016 l -12.352,21.888 h -0.64 l -12.416,-21.888 z m 42.19181,17.28 v 10.24 c 0,11.84 6.848,18.176 17.536,18.176 10.688,0 17.536,-6.336 17.536,-18.176 v -10.24 c 0,-11.84 -6.848,-18.176 -17.536,-18.176 -10.688,0 -17.536,6.336 -17.536,18.176 z m 5.184,-0.256 c 0,-8.256 4.544,-13.312 12.352,-13.312 7.744,0 12.288,5.056 12.288,13.312 v 10.752 c 0,8.256 -4.544,13.248 -12.288,13.248 -7.808,0 -12.352,-4.992 -12.352,-13.248 z m 39.69591,-17.024 v 29.824 c 0,10.496 6.528,15.872 16.448,15.872 9.92,0 16.448,-5.376 16.448,-15.872 v -29.824 h -5.184 v 29.952 c 0,7.36 -4.16,11.072 -11.264,11.072 -7.168,0 -11.264,-3.712 -11.264,-11.072 v -29.952 z m 67.32387,0 v 44.8 h 28.352 v -4.672 h -23.168 v -40.128 z m 36.23999,0 v 44.8 h 5.184 v -44.8 z m 52.43188,0 h -7.424 l -22.528,21.632 h -0.64 v -21.632 h -5.184 v 44.8 h 5.184 v -16.064 l 7.424,-6.976 16.128,23.04 h 6.528 l -19.008,-26.496 z m 6.4159,0 v 44.8 h 28.416 v -4.672 h -23.232 v -15.488 h 21.12 v -4.672 h -21.12 v -15.296 h 22.912 v -4.672 z"
         id="path7" />
      <path
         style="fill:#ff5053"
         d="m 182.75005,314.74878 v 4.672 h 14.976 v 40.128 h 5.184 v -40.128 h 14.912 v -4.672 z m 40.02784,17.28 v 10.24 c 0,11.84 6.848,18.176 17.536,18.176 10.688,0 17.536,-6.336 17.536,-18.176 v -10.24 c 0,-11.84 -6.848,-18.176 -17.536,-18.176 -10.688,0 -17.536,6.336 -17.536,18.176 z m 5.184,-0.256 c 0,-8.256 4.544,-13.312 12.352,-13.312 7.744,0 12.288,5.056 12.288,13.312 v 10.752 c 0,8.256 -4.544,13.248 -12.288,13.248 -7.808,0 -12.352,-4.992 -12.352,-13.248 z m 98.00378,-17.024 h -7.424 l -22.528,21.632 h -0.64 v -21.632 h -5.184 v 44.8 h 5.184 v -16.064 l 7.424,-6.976 16.128,23.04 h 6.528 l -19.008,-26.496 z m 5.9159,0 v 44.8 h 5.184 v -39.232 h 0.64 l 17.536,39.232 h 8.896 v -44.8 h -5.184 v 39.232 h -0.64 l -17.6,-39.232 z m 41.75594,17.28 v 10.24 c 0,11.84 6.848,18.176 17.536,18.176 10.688,0 17.536,-6.336 17.536,-18.176 v -10.24 c 0,-11.84 -6.848,-18.176 -17.536,-18.176 -10.688,0 -17.536,6.336 -17.536,18.176 z m 5.184,-0.256 c 0,-8.256 4.544,-13.312 12.352,-13.312 7.744,0 12.288,5.056 12.288,13.312 v 10.752 c 0,8.256 -4.544,13.248 -12.288,13.248 -7.808,0 -12.352,-4.992 -12.352,-13.248 z m 36.5719,-17.024 8.256,44.8 h 8.384 l 9.344,-39.552 h 0.64 l 9.408,39.552 h 8.384 l 8.256,-44.8 h -5.376 l -6.976,39.488 h -0.64 l -9.28,-39.488 h -8.128 l -9.344,39.488 h -0.64 l -6.976,-39.488 z"
         id="path8" />
      <path
         style="font-family:'Space Grotesk';-inkscape-font-specification:'Space Grotesk'"
         d="m 498.86924,314.74878 v 44.8 h 5.12 v -39.296 h 0.64 l 13.632,39.296 h 7.424 l 13.632,-39.296 h 0.64 v 39.296 h 5.12 v -44.8 h -9.088 l -13.696,39.488 h -0.64 l -13.696,-39.488 z m 55.77193,17.28 v 10.24 c 0,11.84 6.848,18.176 17.536,18.176 10.688,0 17.536,-6.336 17.536,-18.176 v -10.24 c 0,-11.84 -6.848,-18.176 -17.536,-18.176 -10.688,0 -17.536,6.336 -17.536,18.176 z m 5.184,-0.256 c 0,-8.256 4.544,-13.312 12.352,-13.312 7.744,0 12.288,5.056 12.288,13.312 v 10.752 c 0,8.256 -4.544,13.248 -12.288,13.248 -7.808,0 -12.352,-4.992 -12.352,-13.248 z m 71.83591,-3.904 c 0,-8.192 -6.08,-13.12 -14.08,-13.12 h -18.304 v 44.8 h 5.184 v -18.56 h 10.496 l 9.664,18.56 h 6.016 l -10.24,-18.752 c 6.528,-1.024 11.264,-5.696 11.264,-12.928 z m -27.2,-8.384 h 12.544 c 5.888,0 9.408,3.072 9.408,8.384 0,5.312 -3.52,8.448 -9.408,8.448 h -12.544 z m 35.67598,-4.736 v 44.8 h 28.416 v -4.672 h -23.232 v -15.488 h 21.12 v -4.672 h -21.12 v -15.296 h 22.912 v -4.672 z"
         id="path9" />
      <path
         style="fill:#ff5053"
         d="m 676.38894,327.42078 v 2.56 h 5.248 v -2.304 c 0,-6.144 4.8,-9.024 10.624,-9.024 5.76,0 10.304,2.88 10.304,8.128 0,4.672 -2.496,6.72 -7.104,8.64 l -1.792,0.768 c -3.968,1.664 -4.8,3.84 -4.8,7.68 v 3.712 h 5.184 v -3.584 c 0,-2.112 0.576,-3.072 2.24,-3.84 l 1.856,-0.768 c 5.184,-2.176 9.664,-5.568 9.664,-12.48 v -0.448 c 0,-7.296 -6.464,-12.608 -15.552,-12.608 -9.216,0 -15.872,4.928 -15.872,13.568 z m 10.624,28.608 c 0,2.56 1.92,4.416 4.416,4.416 2.56,0 4.416,-1.856 4.416,-4.416 0,-2.56 -1.856,-4.416 -4.416,-4.416 -2.496,0 -4.416,1.856 -4.416,4.416 z"
         id="path10" />
    </g>
  </g>
</svg>
