<?xml version="1.0" encoding="UTF-8" standalone="no"?>
<!-- Created with Inkscape (http://www.inkscape.org/) -->

<svg
   width="175.83522mm"
   height="31.262285mm"
   viewBox="0 0 175.83522 31.262285"
   version="1.1"
   id="svg1"
   xmlns="http://www.w3.org/2000/svg"
   xmlns:svg="http://www.w3.org/2000/svg">
  <defs
     id="defs1" />
  <g
     id="layer1"
     transform="translate(-25.040518,-160.15651)">
    <g
       id="text1"
       style="font-size:16.9333px;line-height:1.05;font-family:Pilowlava;-inkscape-font-specification:Pilowlava;text-align:center;letter-spacing:0px;text-anchor:middle;fill:#ff5053;stroke-width:0.767821;stroke-linecap:square;stroke-linejoin:round"
       aria-label="WOULD YOU LIKE&#10;TO KNOW MORE?">
      <path
         style="letter-spacing:0.396875px;word-spacing:0.396875px"
         d="m 39.814841,163.22485 2.421462,3.33586 c 0.186266,0.254 0.287866,0.49107 0.287866,0.74507 0,0.3048 -0.135467,0.62653 -0.355599,1.016 l -0.660399,1.21919 c -0.474133,0.88054 -0.863598,1.03294 -1.337731,1.03294 -0.694265,0 -1.066798,-0.5588 -1.269997,-1.4224 l -1.219198,-5.36786 c -0.253999,-1.08373 -0.677332,-1.42239 -1.320797,-1.42239 -0.761999,0 -1.422398,0.57573 -1.964263,1.38853 l -3.860793,5.77425 c -0.541865,0.8128 -0.829731,1.1176 -1.269997,1.1176 -0.609599,0 -0.914398,-0.3556 -0.914398,-0.8636 0,-0.4572 0.237066,-0.82973 0.643465,-1.45626 l 2.455329,-3.89466 c 0.626532,-0.98213 1.049864,-1.84573 1.049864,-2.57386 0,-1.016 -0.778932,-1.69333 -2.692394,-1.69333 -2.726262,0 -4.385725,3.21732 -4.385725,5.55412 0,0.44026 0.389466,0.7112 0.694265,0.7112 0.541866,0 0.863598,-0.3048 0.948265,-1.03293 l 0.406399,-3.08186 c 0.08467,-0.64347 0.474133,-0.89747 0.863598,-0.89747 0.423333,0 0.660399,0.37253 0.541866,1.03293 l -1.507064,7.55225 c -0.06773,0.3556 -0.08467,0.67734 -0.08467,0.98213 0,1.6764 1.015998,2.55693 2.404528,2.55693 0.694266,0 1.523997,-0.37253 2.082796,-1.15146 l 4.724391,-6.62092 c 0.169333,-0.23707 0.389466,-0.4572 0.609599,-0.4572 0.270933,0 0.355599,0.18627 0.355599,0.37253 0,0.11854 -0.01693,0.28787 -0.08467,0.42333 l -1.269998,2.6924 c -1.38853,2.92946 -0.863598,4.74132 1.659464,4.74132 3.640659,0 5.706522,-4.91065 5.706522,-8.21265 0,-3.89466 -0.795865,-5.16465 -2.116663,-5.16465 -1.303864,0 -2.150529,0.76199 -2.150529,1.71026 0,0.42333 0.254,0.8636 0.609599,1.35466 z m 11.911517,10.31238 c 3.945459,0 6.011321,-2.28599 6.011321,-6.72252 0,-4.43652 -2.065862,-6.65478 -6.011321,-6.65478 -3.928526,0 -5.994388,2.21826 -5.994388,6.65478 0,4.43653 2.065862,6.72252 5.994388,6.72252 z m 4.758257,-6.87492 -4.470391,5.40173 c -0.643465,0.76199 -1.727197,0.3556 -1.998129,-0.52494 l -2.285996,-7.29825 c -0.491066,-1.59173 0.575732,-2.47226 1.930396,-1.93039 l 6.417721,2.57386 c 0.812798,0.32173 0.982131,1.08373 0.406399,1.77799 z m 5.798574,2.6924 3.454393,-3.74226 c 1.354664,-1.4732 -0.03387,-3.08186 -1.710263,-1.7272 l -1.964263,1.59173 c -0.355599,0.28787 -0.660398,0.16934 -0.795865,0.0339 -0.186266,-0.18627 -0.304799,-0.47413 0.03387,-0.8636 l 0.982131,-1.13453 c 0.745065,-0.8636 1.117598,-1.30386 1.117598,-1.9304 0,-0.8128 -0.575732,-1.42239 -1.54093,-1.42239 -1.219198,0 -1.69333,0.76199 -1.69333,2.23519 v 6.34999 c 0,3.26813 1.947329,4.79212 5.621855,4.79212 3.420527,0 5.757322,-2.03199 5.757322,-5.24932 v -5.48639 c 0,-1.8796 -0.694265,-2.64159 -1.981196,-2.64159 -1.811863,0 -2.252129,1.94733 -1.43933,3.14959 l 2.082796,3.08186 c 0.694265,1.03293 0.457199,1.94733 -0.541866,2.45533 l -4.809057,2.47226 c -1.456264,0.74507 -2.353729,0.64347 -2.861728,-0.0677 -0.507999,-0.7112 -0.1016,-1.49013 0.287866,-1.89653 z m 12.75818,-6.51932 -0.999065,7.16278 c -0.0508,0.33867 -0.06773,0.64347 -0.06773,0.9144 0,1.74413 0.491066,2.37066 2.336796,2.37066 h 3.369726 c 1.777997,0 2.506129,-0.96519 2.506129,-1.93039 0,-0.9652 -0.745066,-1.9304 -1.862663,-1.9304 -0.507999,0 -1.100665,0.2032 -1.74413,0.69427 l -1.557864,1.20226 c -0.863598,0.6604 -1.354664,1.03293 -1.710263,1.03293 -0.287866,0 -0.660399,-0.28786 -0.660399,-0.72813 0,-0.33867 0.2032,-0.79586 0.491066,-1.3208 l 3.572926,-6.63785 c 0.321733,-0.6096 0.457199,-1.13453 0.457199,-1.5748 0,-1.28693 -1.083731,-1.93039 -2.048929,-1.93039 -1.151464,0 -1.828796,0.86359 -2.082796,2.67546 z m 16.314136,-2.42146 H 85.47965 c -1.117598,0 -1.710263,0.89746 -1.710263,1.77799 0,0.77893 0.440266,1.4224 1.388531,1.59173 0.761998,0.13547 1.015998,0.38947 0.728131,0.98213 l -0.626532,1.27 c -1.676396,3.40359 -0.795865,7.46759 3.572927,7.48452 5.164656,0.0169 7.636918,-2.2352 7.636918,-6.58705 0,-4.14866 -1.439331,-6.51932 -5.113857,-6.51932 z m 2.929461,4.16559 -2.929461,7.06118 c -0.524932,1.25307 -2.404528,1.5748 -2.895594,-0.16933 l -1.74413,-6.12985 c -0.321733,-1.15147 0.169333,-1.91347 1.608664,-2.1844 l 4.233325,-0.8128 c 1.28693,-0.254 2.404528,0.59267 1.727196,2.2352 z m 20.392974,-2.72626 0.13547,4.53812 c 0.0169,0.54187 -0.33867,1.13453 -0.98213,0.22013 l -3.40359,-4.91065 c -0.74507,-1.0668 -1.20227,-1.54093 -2.16747,-1.54093 -2.47226,0 -2.81092,3.67452 -2.20133,5.28319 0.18627,0.49106 0.62654,0.67733 0.8636,0.59266 0.54187,-0.18627 0.77893,-0.6604 0.4572,-1.50706 l -0.762,-1.9812 c -0.23706,-0.62653 0.37254,-1.08373 0.84667,-0.4572 l 5.21545,6.97652 c 0.254,0.33867 0.3556,0.84667 -0.79586,0.84667 h -1.59173 c -2.6924,0 -2.40453,3.62372 0.0847,3.62372 1.21919,0 2.20133,-1.30386 2.87866,-2.42146 l 4.14866,-6.80719 c 0.47413,-0.76199 1.01599,-1.65946 1.03293,-2.35372 0.0508,-2.30293 -3.82693,-2.45533 -3.7592,-0.1016 z m 10.89551,11.68397 c 3.94546,0 6.01132,-2.28599 6.01132,-6.72252 0,-4.43652 -2.06586,-6.65478 -6.01132,-6.65478 -3.92852,0 -5.99439,2.21826 -5.99439,6.65478 0,4.43653 2.06587,6.72252 5.99439,6.72252 z m 4.75826,-6.87492 -4.47039,5.40173 c -0.64347,0.76199 -1.7272,0.3556 -1.99813,-0.52494 l -2.286,-7.29825 c -0.49106,-1.59173 0.57573,-2.47226 1.9304,-1.93039 l 6.41772,2.57386 c 0.8128,0.32173 0.98213,1.08373 0.4064,1.77799 z m 5.79858,2.6924 3.45439,-3.74226 c 1.35467,-1.4732 -0.0339,-3.08186 -1.71026,-1.7272 l -1.96426,1.59173 c -0.3556,0.28787 -0.6604,0.16934 -0.79587,0.0339 -0.18627,-0.18627 -0.3048,-0.47413 0.0339,-0.8636 l 0.98213,-1.13453 c 0.74506,-0.8636 1.1176,-1.30386 1.1176,-1.9304 0,-0.8128 -0.57574,-1.42239 -1.54093,-1.42239 -1.2192,0 -1.69333,0.76199 -1.69333,2.23519 v 6.34999 c 0,3.26813 1.94733,4.79212 5.62185,4.79212 3.42053,0 5.75732,-2.03199 5.75732,-5.24932 v -5.48639 c 0,-1.8796 -0.69426,-2.64159 -1.98119,-2.64159 -1.81187,0 -2.25213,1.94733 -1.43933,3.14959 l 2.08279,3.08186 c 0.69427,1.03293 0.4572,1.94733 -0.54186,2.45533 l -4.80906,2.47226 c -1.45626,0.74507 -2.35373,0.64347 -2.86173,-0.0677 -0.508,-0.7112 -0.1016,-1.49013 0.28787,-1.89653 z m 20.32524,-6.51932 -0.99906,7.16278 c -0.0508,0.33867 -0.0677,0.64347 -0.0677,0.9144 0,1.74413 0.49107,2.37066 2.3368,2.37066 h 3.36972 c 1.778,0 2.50613,-0.96519 2.50613,-1.93039 0,-0.9652 -0.74506,-1.9304 -1.86266,-1.9304 -0.508,0 -1.10066,0.2032 -1.74413,0.69427 l -1.55786,1.20226 c -0.8636,0.6604 -1.35467,1.03293 -1.71027,1.03293 -0.28786,0 -0.6604,-0.28786 -0.6604,-0.72813 0,-0.33867 0.2032,-0.79586 0.49107,-1.3208 l 3.57293,-6.63785 c 0.32173,-0.6096 0.4572,-1.13453 0.4572,-1.5748 0,-1.28693 -1.08374,-1.93039 -2.04893,-1.93039 -1.15147,0 -1.8288,0.86359 -2.0828,2.67546 z m 8.47402,1.33773 c 0,0.3048 0.13547,0.54186 0.5588,0.54186 h 0.72813 c 0.54187,0 0.84667,0.13547 0.84667,0.52494 0,0.0847 -0.0169,0.18626 -0.0508,0.3048 l -1.3716,5.01225 c -0.4572,1.69333 0.44027,2.98026 2.37066,2.98026 1.30387,0 2.65853,-0.57573 2.54,-1.71026 -0.1016,-0.98213 -0.93133,-1.08373 -1.64253,-0.77893 l -2.032,0.88053 c -0.32173,0.13547 -0.6096,-0.1524 -0.6096,-0.49107 0,-0.16933 0.0847,-0.3048 0.3556,-0.60959 l 3.23426,-3.69146 c 1.1176,-1.28694 0.54187,-2.72627 -1.16839,-2.52307 l -1.15147,0.13547 c -0.1524,0.0169 -0.44026,0.0169 -0.44026,-0.27093 0,-0.16934 0.1016,-0.32174 0.32173,-0.38947 l 1.86266,-0.64346 c 0.8128,-0.28787 1.38853,-0.72814 1.38853,-1.6764 0,-1.016 -0.82973,-1.60866 -1.69333,-1.60866 -0.49106,0 -0.98213,0.18626 -1.33773,0.59266 l -1.91346,2.20133 c -0.42333,0.49107 -0.79587,0.94827 -0.79587,1.2192 z m 10.6415,9.36411 c 1.7272,0 1.6764,-1.77799 0.57574,-3.08186 l -0.27094,-0.32173 c -0.4572,-0.5588 -0.7112,-1.13453 -0.47413,-1.50706 0.44027,-0.69427 1.03293,-0.3556 1.8796,0.28786 l 4.41959,3.3528 c 1.10066,0.82973 1.82879,1.26999 2.87866,1.26999 0.94826,0 1.64253,-1.08373 1.4732,-2.09973 -0.2032,-1.18533 -0.9144,-1.65946 -2.45533,-1.99813 l -5.30013,-1.15146 c -0.66039,-0.13547 -1.55786,-0.23707 -1.64253,-0.74507 -0.0677,-0.37253 0.0677,-0.76199 0.64347,-1.03293 l 5.89279,-2.82786 c 0.49106,-0.23706 0.9652,0.28787 0.8128,0.77893 l -0.62654,2.04893 c -0.23706,0.77894 0.23707,1.20227 0.762,1.23613 0.57574,0.0169 1.2192,-0.40639 1.08373,-1.35466 l -0.60959,-4.23332 c -0.2032,-1.43933 -1.15147,-1.99813 -2.16747,-1.99813 -1.11759,0 -1.54093,0.69426 -2.52306,1.86266 l -4.63972,5.52025 c -0.67733,0.79587 -1.54093,0.11854 -1.016,-0.69426 l 2.11666,-3.23426 c 0.33867,-0.508 0.5588,-1.0668 0.42333,-1.8796 -0.1524,-0.84666 -0.93133,-1.57479 -2.13359,-1.57479 -1.2192,0 -1.8288,0.86359 -1.74413,2.33679 l 0.59266,8.85612 c 0.11854,1.60866 1.08374,2.18439 2.04893,2.18439 z m 22.71497,-2.67546 -7.45066,0.6604 c -0.98213,0.0847 -1.42239,-0.37253 -1.42239,-0.84666 0,-0.49107 0.38946,-0.82974 1.42239,-0.9652 l 6.06213,-0.74507 c 1.28693,-0.1524 1.72719,-0.93133 1.72719,-1.74413 0,-0.62653 -0.23706,-1.42239 -1.72719,-1.89653 l -6.60399,-2.09973 c -0.79587,-0.254 -0.93133,-0.59266 -0.93133,-1.01599 0,-0.37254 0.4572,-1.0668 1.28693,-0.77894 l 6.92572,2.42147 c 1.45626,0.50799 2.21826,0.1016 2.26906,-0.9144 0.0508,-0.9652 -0.42333,-1.50707 -1.3208,-1.9304 -0.98213,-0.4572 -3.52212,-0.84666 -5.79119,-0.82973 -2.25213,0 -4.28412,0.508 -4.28412,2.20133 0,0.62653 0.42333,1.23613 1.18533,1.77799 l 5.04612,3.5052 c 0.67733,0.47413 0.33867,1.10066 -0.44026,0.77893 l -3.38666,-1.38853 c -1.65947,-0.67733 -3.0988,0.13547 -3.0988,1.6764 0,3.08186 3.69146,4.82599 8.02639,4.82599 3.03106,0 4.06399,-0.69427 4.06399,-1.76107 0,-0.54186 -0.28787,-1.04986 -1.55786,-0.93133 z"
         id="path1" />
      <path
         d="m 34.049033,188.1676 -2.726261,-7.92478 c -0.338666,-0.9652 -0.169333,-1.35466 0.287866,-1.35466 0.1524,0 0.338666,0.0847 0.507999,0.27093 l 1.89653,2.11666 c 1.557863,1.7272 4.063992,0.74507 4.063992,-1.20226 0,-0.8636 -0.558799,-1.8796 -2.319863,-1.8796 h -5.791188 c -3.064927,0 -4.92759,1.69333 -4.92759,4.04706 0,1.04986 0.812798,1.98119 1.896529,2.01506 1.54093,0.0508 2.031996,-1.0668 2.031996,-3.40359 v -0.74507 c 0,-0.74506 0.169333,-1.30386 0.745065,-1.30386 0.457199,0 0.643466,0.44026 0.660399,1.50706 l 0.186266,8.28039 c 0.03387,1.79493 0.372533,2.72626 1.99813,2.72626 1.811863,0 2.184395,-1.30387 1.49013,-3.1496 z m 10.617165,-10.22771 c -3.928526,0 -5.994388,2.286 -5.994388,6.72252 0,4.43653 2.065862,6.65479 5.994388,6.65479 3.945459,0 6.011321,-2.21826 6.011321,-6.65479 0,-4.43652 -2.065862,-6.72252 -6.011321,-6.72252 z m 0.287866,1.4732 4.470391,5.40172 c 0.575732,0.69427 0.406399,1.45626 -0.406399,1.778 l -6.417721,2.57386 c -1.354664,0.54186 -2.421462,-0.33867 -1.930396,-1.9304 l 2.285995,-7.29825 c 0.270933,-0.88053 1.354664,-1.28693 1.99813,-0.52493 z M 62.1244,191.3172 c 1.727197,0 1.676397,-1.778 0.575733,-3.08186 L 62.4292,187.9136 c -0.457199,-0.55879 -0.711199,-1.13453 -0.474133,-1.50706 0.440266,-0.69426 1.032932,-0.3556 1.879597,0.28787 l 4.419591,3.35279 c 1.100664,0.82973 1.828796,1.27 2.878661,1.27 0.948265,0 1.64253,-1.08373 1.473197,-2.09973 -0.203199,-1.18533 -0.914398,-1.65947 -2.455328,-1.99813 l -5.300123,-1.15147 c -0.660399,-0.13546 -1.557864,-0.23706 -1.64253,-0.74506 -0.06773,-0.37253 0.06773,-0.762 0.643465,-1.03293 l 5.892788,-2.82786 c 0.491066,-0.23707 0.965198,0.28786 0.812799,0.77893 l -0.626532,2.04893 c -0.237067,0.77893 0.237066,1.20226 0.761998,1.23613 0.575732,0.0169 1.219198,-0.4064 1.083731,-1.35467 l -0.609598,-4.23332 c -0.2032,-1.43933 -1.151465,-1.99813 -2.167463,-1.99813 -1.117598,0 -1.54093,0.69427 -2.523062,1.86266 l -4.639724,5.52026 c -0.677332,0.79586 -1.54093,0.11853 -1.015998,-0.69427 l 2.116663,-3.23426 c 0.338666,-0.508 0.558799,-1.06679 0.423332,-1.87959 -0.152399,-0.84667 -0.931331,-1.5748 -2.133596,-1.5748 -1.219197,0 -1.828796,0.8636 -1.744129,2.3368 l 0.592665,8.85611 c 0.118533,1.60867 1.083731,2.1844 2.048929,2.1844 z m 22.673681,-13.37731 c -1.828796,0 -1.811863,1.5748 -1.185331,3.47133 l 1.913463,5.77425 c 0.118533,0.37253 0.304799,1.13453 0.304799,1.60867 0,0.96519 -0.440265,1.67639 -1.38853,1.67639 -0.609599,0 -1.134531,-0.44026 -0.999065,-1.30386 l 0.1524,-0.9652 c 0.220133,-1.40546 -0.507999,-2.79399 -1.202265,-3.70839 l -3.149593,-4.16559 c -1.236131,-1.6256 -1.727197,-2.3876 -2.760128,-2.3876 -1.100665,0 -1.811863,0.74507 -1.84573,2.37066 l -0.186266,7.84012 c -0.03387,1.55786 0.338666,3.18346 2.015062,3.18346 1.422398,0 1.862663,-1.10066 1.862663,-1.96426 0,-0.4064 0.169333,-1.016 -0.389465,-2.032 l -2.235196,-4.01319 c -0.287866,-0.508 -0.355599,-0.94827 -0.355599,-1.25306 0,-0.37254 0.203199,-0.5588 0.626532,-0.5588 0.304799,0 0.507999,0.23706 0.948265,0.88053 l 4.436524,6.43465 c 1.066798,1.55787 1.879596,2.50613 3.081861,2.50613 1.964263,0 2.370662,-1.33773 2.539995,-5.13079 l 0.186266,-4.13172 c 0.118533,-2.45533 -0.1524,-4.13173 -2.370662,-4.13173 z m 10.210779,0 c -3.928526,0 -5.994389,2.286 -5.994389,6.72252 0,4.43653 2.065863,6.65479 5.994389,6.65479 3.945458,0 6.01132,-2.21826 6.01132,-6.65479 0,-4.43652 -2.065862,-6.72252 -6.01132,-6.72252 z m 0.287866,1.4732 4.470391,5.40172 c 0.575733,0.69427 0.406403,1.45626 -0.406399,1.778 l -6.417721,2.57386 c -1.354664,0.54186 -2.421462,-0.33867 -1.930396,-1.9304 l 2.285995,-7.29825 c 0.270933,-0.88053 1.354664,-1.28693 1.99813,-0.52493 z m 21.640734,1.59173 2.42146,3.33586 c 0.18627,0.254 0.28787,0.49106 0.28787,0.74506 0,0.3048 -0.13547,0.62654 -0.3556,1.016 l -0.6604,1.2192 c -0.47413,0.88053 -0.8636,1.03293 -1.33773,1.03293 -0.69427,0 -1.0668,-0.5588 -1.27,-1.4224 l -1.2192,-5.36785 c -0.254,-1.08373 -0.67733,-1.4224 -1.32079,-1.4224 -0.762,0 -1.4224,0.57573 -1.96427,1.38853 l -3.86079,5.77426 c -0.54187,0.81279 -0.82973,1.11759 -1.27,1.11759 -0.6096,0 -0.9144,-0.3556 -0.9144,-0.8636 0,-0.45719 0.23707,-0.82973 0.64347,-1.45626 l 2.45533,-3.89466 c 0.62653,-0.98213 1.04986,-1.84573 1.04986,-2.57386 0,-1.016 -0.77893,-1.69333 -2.69239,-1.69333 -2.72626,0 -4.38573,3.21733 -4.38573,5.55412 0,0.44027 0.38947,0.7112 0.69427,0.7112 0.54186,0 0.8636,-0.3048 0.94826,-1.03293 l 0.4064,-3.08186 c 0.0847,-0.64347 0.47414,-0.89747 0.8636,-0.89747 0.42333,0 0.6604,0.37254 0.54187,1.03294 l -1.50707,7.55225 c -0.0677,0.3556 -0.0847,0.67733 -0.0847,0.98213 0,1.6764 1.01599,2.55693 2.40453,2.55693 0.69426,0 1.52399,-0.37254 2.08279,-1.15147 l 4.72439,-6.62092 c 0.16934,-0.23706 0.38947,-0.4572 0.6096,-0.4572 0.27093,0 0.3556,0.18627 0.3556,0.37254 0,0.11853 -0.0169,0.28786 -0.0847,0.42333 l -1.26999,2.69239 c -1.38853,2.92946 -0.8636,4.74133 1.65946,4.74133 3.64066,0 5.70652,-4.91066 5.70652,-8.21265 0,-3.89466 -0.79586,-5.16466 -2.11666,-5.16466 -1.30386,0 -2.15053,0.762 -2.15053,1.71026 0,0.42334 0.254,0.8636 0.6096,1.35467 z"
         id="path2" />
      <path
         style="fill:#b2aaff"
         d="m 139.42487,183.05375 0.44027,3.01412 c 0.18626,1.23614 -0.0677,1.778 -0.6096,1.778 -0.32173,0 -0.6604,-0.2032 -0.9144,-0.82973 l -2.7432,-6.65479 c -0.72813,-1.76106 -1.84572,-2.43839 -3.18346,-2.43839 -1.96426,0 -3.09879,1.32079 -3.09879,5.13079 v 3.57292 c 0,2.45533 0.27093,4.69053 2.4892,4.69053 1.82879,0 2.18439,-1.7272 1.47319,-3.47133 l -2.33679,-5.74039 c -0.1524,-0.37253 -0.37254,-1.13453 -0.37254,-1.60866 0,-0.9652 0.5588,-1.6764 1.50707,-1.6764 0.77893,0 1.4732,0.44027 1.33773,1.30387 l -0.1524,0.96519 c -0.22013,1.40547 0.13547,2.92947 0.64346,3.94546 l 1.96427,3.89466 c 0.9144,1.8288 1.54093,2.3876 2.31986,2.3876 1.13453,0 1.6764,-1.03293 2.1844,-2.72626 l 2.67546,-8.83919 c 0.4572,-1.50706 2.25213,-1.01599 1.86266,0.38947 l -1.91346,6.75639 c -0.18627,0.66039 -0.5588,1.72719 -0.5588,2.45532 0,0.8636 0.44026,1.96427 1.86266,1.96427 0.94827,0 2.06586,-0.59267 2.04893,-2.52306 l -0.0339,-5.63879 c -0.0169,-4.09786 -0.88053,-5.21546 -3.01412,-5.21546 -2.67546,0 -4.33493,1.96426 -3.87773,5.11386 z m -7.89092,6.58705 c -0.27093,0 -0.47413,-0.2032 -0.47413,-0.4572 0,-0.254 0.2032,-0.47413 0.47413,-0.47413 0.254,0 0.4572,0.22013 0.4572,0.47413 0,0.254 -0.2032,0.4572 -0.4572,0.4572 z m 3.43746,-5.84199 c -0.27093,0 -0.47413,-0.2032 -0.47413,-0.4572 0,-0.254 0.2032,-0.47413 0.47413,-0.47413 0.254,0 0.4572,0.22013 0.4572,0.47413 0,0.254 -0.2032,0.4572 -0.4572,0.4572 z m 5.82506,-2.21826 c -0.27093,0 -0.47413,-0.2032 -0.47413,-0.4572 0,-0.254 0.2032,-0.47413 0.47413,-0.47413 0.254,0 0.4572,0.22013 0.4572,0.47413 0,0.254 -0.2032,0.4572 -0.4572,0.4572 z m 3.70839,7.84012 c -0.27093,0 -0.47413,-0.2032 -0.47413,-0.4572 0,-0.254 0.2032,-0.47413 0.47413,-0.47413 0.254,0 0.4572,0.22013 0.4572,0.47413 0,0.254 -0.2032,0.4572 -0.4572,0.4572 z m 9.95677,-11.48078 c -3.92852,0 -5.99438,2.286 -5.99438,6.72252 0,4.43653 2.06586,6.65479 5.99438,6.65479 3.94546,0 6.01133,-2.21826 6.01133,-6.65479 0,-4.43652 -2.06587,-6.72252 -6.01133,-6.72252 z m 0.28787,1.4732 4.47039,5.40172 c 0.57573,0.69427 0.4064,1.45626 -0.4064,1.778 l -6.41772,2.57386 c -1.35466,0.54186 -2.42146,-0.33867 -1.9304,-1.9304 l 2.286,-7.29825 c 0.27093,-0.88053 1.35466,-1.28693 1.99813,-0.52493 z m 1.60866,9.38105 c 0.254,0 0.4572,0.2032 0.4572,0.45719 0,0.254 -0.2032,0.47414 -0.4572,0.47414 -0.27093,0 -0.47413,-0.22014 -0.47413,-0.47414 0,-0.25399 0.2032,-0.45719 0.47413,-0.45719 z m -6.12985,-6.40079 c 0.254,0 0.4572,0.2032 0.4572,0.4572 0,0.254 -0.2032,0.47413 -0.4572,0.47413 -0.27093,0 -0.47413,-0.22013 -0.47413,-0.47413 0,-0.254 0.2032,-0.4572 0.47413,-0.4572 z m 7.63692,-2.15053 c 0.254,0 0.4572,0.2032 0.4572,0.4572 0,0.254 -0.2032,0.47413 -0.4572,0.47413 -0.27094,0 -0.47414,-0.22013 -0.47414,-0.47413 0,-0.254 0.2032,-0.4572 0.47414,-0.4572 z m 17.11954,8.94078 c 0,-1.04986 -0.84667,-1.74413 -1.96427,-1.76106 l -3.33586,-0.0339 c -0.64346,0 -0.91439,-0.13546 -0.91439,-0.52493 0,-0.4064 0.32173,-0.6096 0.72813,-0.74507 l 2.77706,-0.98213 c 2.3876,-0.84666 2.81093,-1.87959 2.81093,-3.03106 0,-1.52399 -0.99907,-4.16559 -5.18159,-4.16559 -5.14773,0 -7.56919,4.38573 -7.56919,10.14305 0,2.42146 1.1684,3.23426 2.21826,3.23426 1.9304,0 2.1336,-1.49013 1.4732,-3.048 l -1.72719,-4.06399 c -0.13547,-0.32173 -0.22014,-0.6604 -0.22014,-0.98213 0,-1.20226 0.94827,-2.2352 2.6924,-2.2352 h 5.30012 c 1.23613,0 1.8796,0.64347 1.8796,1.4732 0,0.88053 -0.59267,1.69333 -2.40453,1.45627 l -5.14773,-0.6604 c -0.62653,-0.0847 -0.96519,0.0339 -0.98213,0.47413 0,0.23707 0.16934,0.59266 0.54187,1.0668 l 4.18252,5.06305 c 0.93134,1.13453 1.8288,1.45627 2.50613,1.45627 1.76107,0 2.3368,-1.0668 2.3368,-2.1336 z m -5.02919,-9.05931 c -0.27094,0 -0.47413,-0.2032 -0.47413,-0.4572 0,-0.254 0.20319,-0.47414 0.47413,-0.47414 0.254,0 0.4572,0.22014 0.4572,0.47414 0,0.254 -0.2032,0.4572 -0.4572,0.4572 z m -5.53719,9.49958 c -0.27093,0 -0.47413,-0.2032 -0.47413,-0.4572 0,-0.254 0.2032,-0.47413 0.47413,-0.47413 0.254,0 0.4572,0.22013 0.4572,0.47413 0,0.254 -0.2032,0.4572 -0.4572,0.4572 z m 8.28038,0.16933 c -0.27093,0 -0.47413,-0.2032 -0.47413,-0.4572 0,-0.254 0.2032,-0.47413 0.47413,-0.47413 0.254,0 0.4572,0.22013 0.4572,0.47413 0,0.254 -0.2032,0.4572 -0.4572,0.4572 z m -4.67359,-4.45346 c -0.27093,0 -0.47413,-0.2032 -0.47413,-0.4572 0,-0.254 0.2032,-0.47413 0.47413,-0.47413 0.254,0 0.4572,0.22013 0.4572,0.47413 0,0.254 -0.2032,0.4572 -0.4572,0.4572 z m 11.83636,-5.35092 7.45065,0.6604 c 1.27,0.11853 1.55786,-0.38947 1.55786,-0.93133 0,-1.0668 -1.03293,-1.76107 -4.06399,-1.76107 -4.33492,0 -8.02638,1.74413 -8.02638,4.82599 0,1.54093 1.43933,2.35373 3.09879,1.6764 l 3.38666,-1.38853 c 0.77893,-0.32173 1.1176,0.3048 0.44027,0.77893 l -5.04613,3.5052 c -0.76199,0.54186 -1.18533,1.15146 -1.18533,1.77799 0,1.69333 2.032,2.20133 4.28413,2.20133 2.26906,0.0169 4.80906,-0.37253 5.79119,-0.82973 0.89746,-0.42333 1.37159,-0.9652 1.32079,-1.9304 -0.0508,-1.016 -0.81279,-1.42239 -2.26906,-0.9144 l -6.92572,2.42147 c -0.82973,0.28786 -1.28693,-0.4064 -1.28693,-0.77894 0,-0.42333 0.13547,-0.76199 0.93133,-1.01599 l 6.60399,-2.09973 c 1.49013,-0.47413 1.7272,-1.27 1.7272,-1.89653 0,-0.8128 -0.44027,-1.59173 -1.7272,-1.74413 l -6.06212,-0.74507 c -1.03293,-0.13546 -1.4224,-0.47413 -1.4224,-0.9652 0,-0.47413 0.44027,-0.93133 1.4224,-0.84666 z m 7.29825,8.68678 c 0.254,0 0.4572,0.2032 0.4572,0.4572 0,0.254 -0.2032,0.47413 -0.4572,0.47413 -0.27093,0 -0.47413,-0.22013 -0.47413,-0.47413 0,-0.254 0.2032,-0.4572 0.47413,-0.4572 z m -8.63598,-6.11292 c 0.254,0 0.4572,0.2032 0.4572,0.4572 0,0.254 -0.2032,0.47413 -0.4572,0.47413 -0.27093,0 -0.47413,-0.22013 -0.47413,-0.47413 0,-0.254 0.2032,-0.4572 0.47413,-0.4572 z m 8.77145,-3.60679 c 0.254,0 0.4572,0.2032 0.4572,0.4572 0,0.254 -0.2032,0.47413 -0.4572,0.47413 -0.27094,0 -0.47413,-0.22013 -0.47413,-0.47413 0,-0.254 0.20319,-0.4572 0.47413,-0.4572 z m -1.4732,5.01226 c 0.254,0 0.4572,0.20319 0.4572,0.45719 0,0.254 -0.2032,0.47414 -0.4572,0.47414 -0.27093,0 -0.47413,-0.22014 -0.47413,-0.47414 0,-0.254 0.2032,-0.45719 0.47413,-0.45719 z"
         id="path3" />
      <path
         d="m 198.08174,180.88628 -4.63972,5.57106 c -0.11853,0.13547 -0.16933,0.3048 -0.16933,0.44027 0,0.254 0.16933,0.47413 0.44026,0.47413 0.0847,0 0.18627,-0.0169 0.28787,-0.0847 l 3.91159,-2.31986 c 1.81186,-1.0668 2.96333,-1.89653 2.96333,-3.65759 0,-2.47226 -2.4384,-3.4036 -5.02919,-3.4036 -3.11573,0 -5.70652,0.88054 -5.53719,3.01413 0.0847,1.10067 0.6604,1.3716 1.33773,1.3716 0.4572,0 1.08373,-0.18627 1.64253,-0.54187 l 3.64066,-2.30293 c 0.3556,-0.22013 0.7112,-0.37253 1.016,-0.37253 0.44026,0 0.762,0.22013 0.762,0.62653 0,0.3048 -0.16934,0.7112 -0.62654,1.18533 z m -1.28693,9.26252 c 0.11854,-1.35466 -1.11759,-1.6764 -2.23519,-1.6764 -1.1684,0 -1.45627,0.5588 -1.524,1.27 -0.11853,1.28693 1.3208,1.6764 2.4384,1.6764 0.66039,0 1.25306,-0.33867 1.32079,-1.27 z"
         id="path4" />
    </g>
  </g>
</svg>
