<?xml version="1.0" encoding="UTF-8" standalone="no"?>
<!-- Created with Inkscape (http://www.inkscape.org/) -->

<svg
   width="175.83522mm"
   height="31.262285mm"
   viewBox="0 0 175.83522 31.262285"
   version="1.1"
   id="svg1"
   inkscape:version="1.3 (0e150ed, 2023-07-21)"
   sodipodi:docname="wyltkm-pilowlava-atom.svg"
   xmlns:inkscape="http://www.inkscape.org/namespaces/inkscape"
   xmlns:sodipodi="http://sodipodi.sourceforge.net/DTD/sodipodi-0.dtd"
   xmlns="http://www.w3.org/2000/svg"
   xmlns:svg="http://www.w3.org/2000/svg">
  <sodipodi:namedview
     id="namedview1"
     pagecolor="#ffffff"
     bordercolor="#000000"
     borderopacity="0.25"
     inkscape:showpageshadow="2"
     inkscape:pageopacity="0.0"
     inkscape:pagecheckerboard="0"
     inkscape:deskcolor="#d1d1d1"
     inkscape:document-units="mm"
     inkscape:zoom="0.78929574"
     inkscape:cx="347.14491"
     inkscape:cy="462.43757"
     inkscape:window-width="1854"
     inkscape:window-height="1131"
     inkscape:window-x="0"
     inkscape:window-y="0"
     inkscape:window-maximized="1"
     inkscape:current-layer="layer1" />
  <defs
     id="defs1" />
  <g
     inkscape:label="Layer 1"
     inkscape:groupmode="layer"
     id="layer1"
     transform="translate(-13.101835,-26.048811)">
    <g
       id="text1"
       style="font-size:16.9333px;line-height:1.05;font-family:Pilowlava;-inkscape-font-specification:Pilowlava;text-align:center;letter-spacing:0px;text-anchor:middle;fill:#ff5053;stroke-width:0.767821;stroke-linecap:square;stroke-linejoin:round"
       aria-label="WOULD YOU LIKE&#10;TO KNOW MORE?">
      <path
         style="font-weight:500;-inkscape-font-specification:'Pilowlava Medium';letter-spacing:0.396875px;word-spacing:0.396875px"
         d="m 27.876158,29.117153 2.421462,3.33586 c 0.186266,0.254 0.287866,0.491066 0.287866,0.745065 0,0.3048 -0.135466,0.626532 -0.355599,1.015998 l -0.660399,1.219198 c -0.474132,0.880532 -0.863598,1.032931 -1.33773,1.032931 -0.694266,0 -1.066798,-0.558799 -1.269998,-1.422397 l -1.219198,-5.367856 c -0.253999,-1.083731 -0.677332,-1.422397 -1.320797,-1.422397 -0.761998,0 -1.422397,0.575732 -1.964263,1.38853 l -3.860792,5.774256 c -0.541866,0.812798 -0.829732,1.117597 -1.269998,1.117597 -0.609598,0 -0.914398,-0.355599 -0.914398,-0.863598 0,-0.457199 0.237066,-0.829732 0.643466,-1.456264 l 2.455328,-3.894659 c 0.626532,-0.982131 1.049865,-1.845729 1.049865,-2.573861 0,-1.015998 -0.778932,-1.69333 -2.692395,-1.69333 -2.726261,0 -4.385725,3.217327 -4.385725,5.554122 0,0.440266 0.389466,0.711199 0.694266,0.711199 0.541865,0 0.863598,-0.3048 0.948264,-1.032932 l 0.4064,-3.08186 c 0.08467,-0.643466 0.474132,-0.897465 0.863598,-0.897465 0.423332,0 0.660399,0.372533 0.541865,1.032931 l -1.507063,7.552252 c -0.06773,0.355599 -0.08467,0.677332 -0.08467,0.982131 0,1.676397 1.015998,2.556929 2.404529,2.556929 0.694265,0 1.523997,-0.372533 2.082796,-1.151465 l 4.72439,-6.62092 c 0.169333,-0.237066 0.389466,-0.457199 0.609599,-0.457199 0.270933,0 0.3556,0.186266 0.3556,0.372533 0,0.118533 -0.01693,0.287866 -0.08467,0.423332 l -1.269997,2.692395 c -1.388531,2.929461 -0.863599,4.741324 1.659463,4.741324 3.640659,0 5.706522,-4.910657 5.706522,-8.212651 0,-3.894659 -0.795865,-5.164656 -2.116662,-5.164656 -1.303865,0 -2.15053,0.761998 -2.15053,1.710263 0,0.423333 0.254,0.863598 0.609599,1.354664 z m -10.193846,9.194782 c -0.270933,0 -0.474133,-0.2032 -0.474133,-0.457199 0,-0.254 0.2032,-0.474133 0.474133,-0.474133 0.253999,0 0.457199,0.220133 0.457199,0.474133 0,0.253999 -0.2032,0.457199 -0.457199,0.457199 z m 11.717843,-10.00758 c -0.270933,0 -0.474132,-0.2032 -0.474132,-0.457199 0,-0.254 0.203199,-0.474133 0.474132,-0.474133 0.254,0 0.457199,0.220133 0.457199,0.474133 0,0.253999 -0.203199,0.457199 -0.457199,0.457199 z m -4.013192,9.059315 c -0.270933,0 -0.474132,-0.203199 -0.474132,-0.457199 0,-0.253999 0.203199,-0.474132 0.474132,-0.474132 0.254,0 0.457199,0.220133 0.457199,0.474132 0,0.254 -0.203199,0.457199 -0.457199,0.457199 z m -1.625597,-6.485454 c -0.270932,0 -0.474132,-0.203199 -0.474132,-0.457199 0,-0.253999 0.2032,-0.474132 0.474132,-0.474132 0.254,0 0.457199,0.220133 0.457199,0.474132 0,0.254 -0.203199,0.457199 -0.457199,0.457199 z m -4.97839,-2.370662 c -0.270933,0 -0.474132,-0.203199 -0.474132,-0.457199 0,-0.253999 0.203199,-0.474132 0.474132,-0.474132 0.254,0 0.457199,0.220133 0.457199,0.474132 0,0.254 -0.203199,0.457199 -0.457199,0.457199 z m 21.004699,10.921979 c 3.945459,0 6.011322,-2.285996 6.011322,-6.72252 0,-4.436525 -2.065863,-6.654787 -6.011322,-6.654787 -3.928525,0 -5.994388,2.218262 -5.994388,6.654787 0,4.436524 2.065863,6.72252 5.994388,6.72252 z m 4.758258,-6.87492 -4.470392,5.401723 c -0.643465,0.761998 -1.727196,0.355599 -1.998129,-0.524933 l -2.285995,-7.298252 c -0.491066,-1.59173 0.575732,-2.472262 1.930396,-1.930396 l 6.41772,2.573861 c 0.812799,0.321733 0.982132,1.083732 0.4064,1.777997 z m -2.861728,-3.979326 c -0.270933,0 -0.474132,-0.203199 -0.474132,-0.457199 0,-0.253999 0.203199,-0.474132 0.474132,-0.474132 0.253999,0 0.457199,0.220133 0.457199,0.474132 0,0.254 -0.2032,0.457199 -0.457199,0.457199 z m -6.129855,6.400788 c -0.270932,0 -0.474132,-0.2032 -0.474132,-0.457199 0,-0.254 0.2032,-0.474133 0.474132,-0.474133 0.254,0 0.457199,0.220133 0.457199,0.474133 0,0.253999 -0.203199,0.457199 -0.457199,0.457199 z m 7.636919,2.150529 c -0.270933,0 -0.474133,-0.2032 -0.474133,-0.457199 0,-0.254 0.2032,-0.474133 0.474133,-0.474133 0.253999,0 0.457199,0.220133 0.457199,0.474133 0,0.253999 -0.2032,0.457199 -0.457199,0.457199 z m 7.153238,-1.879596 3.454393,-3.74226 c 1.354664,-1.473197 -0.03387,-3.08186 -1.710263,-1.727196 l -1.964263,1.59173 c -0.3556,0.287866 -0.660399,0.169333 -0.795865,0.03387 -0.186267,-0.186267 -0.3048,-0.474133 0.03387,-0.863599 l 0.982132,-1.134531 c 0.745065,-0.863598 1.117597,-1.303864 1.117597,-1.930396 0,-0.812798 -0.575732,-1.422397 -1.54093,-1.422397 -1.219197,0 -1.69333,0.761998 -1.69333,2.235195 v 6.349988 c 0,3.268127 1.94733,4.792124 5.621856,4.792124 3.420526,0 5.757322,-2.031996 5.757322,-5.249323 v -5.486389 c 0,-1.879597 -0.694266,-2.641595 -1.981196,-2.641595 -1.811863,0 -2.252129,1.947329 -1.439331,3.149594 l 2.082796,3.08186 c 0.694265,1.032931 0.457199,1.94733 -0.541866,2.455329 l -4.809057,2.472261 c -1.456264,0.745066 -2.353728,0.643466 -2.861727,-0.06773 -0.507999,-0.711198 -0.1016,-1.49013 0.287866,-1.896529 z m 7.704651,-7.17972 c -0.253999,0 -0.457199,-0.203199 -0.457199,-0.457199 0,-0.253999 0.2032,-0.474132 0.457199,-0.474132 0.270933,0 0.474133,0.220133 0.474133,0.474132 0,0.254 -0.2032,0.457199 -0.474133,0.457199 z m -8.26345,0.118534 c -0.254,0 -0.457199,-0.2032 -0.457199,-0.4572 0,-0.253999 0.203199,-0.474132 0.457199,-0.474132 0.270933,0 0.474132,0.220133 0.474132,0.474132 0,0.254 -0.203199,0.4572 -0.474132,0.4572 z m 2.319862,3.539059 c -0.254,0 -0.457199,-0.203199 -0.457199,-0.457199 0,-0.253999 0.203199,-0.474132 0.457199,-0.474132 0.270933,0 0.474132,0.220133 0.474132,0.474132 0,0.254 -0.203199,0.457199 -0.474132,0.457199 z m 3.826926,6.197588 c -0.254,0 -0.457199,-0.2032 -0.457199,-0.457199 0,-0.254 0.203199,-0.474132 0.457199,-0.474132 0.270932,0 0.474132,0.220132 0.474132,0.474132 0,0.253999 -0.2032,0.457199 -0.474132,0.457199 z m 7.17019,-9.194782 -0.999064,7.162786 c -0.0508,0.338666 -0.06773,0.643465 -0.06773,0.914398 0,1.74413 0.491065,2.370662 2.336795,2.370662 h 3.369727 c 1.777996,0 2.506128,-0.965198 2.506128,-1.930396 0,-0.965198 -0.745065,-1.930396 -1.862663,-1.930396 -0.507999,0 -1.100664,0.203199 -1.74413,0.694265 l -1.557863,1.202264 c -0.863599,0.660399 -1.354664,1.032932 -1.710264,1.032932 -0.287866,0 -0.660398,-0.287866 -0.660398,-0.728132 0,-0.338666 0.203199,-0.795865 0.491065,-1.320798 l 3.572927,-6.637853 c 0.321732,-0.609599 0.457199,-1.134531 0.457199,-1.574797 0,-1.286931 -1.083732,-1.930396 -2.04893,-1.930396 -1.151464,0 -1.828796,0.863598 -2.082796,2.675461 z m 5.096924,8.957716 c -0.270933,0 -0.474133,-0.2032 -0.474133,-0.457199 0,-0.254 0.2032,-0.474133 0.474133,-0.474133 0.253999,0 0.457199,0.220133 0.457199,0.474133 0,0.253999 -0.2032,0.457199 -0.457199,0.457199 z m -3.081861,-9.330248 c -0.270933,0 -0.474132,-0.2032 -0.474132,-0.4572 0,-0.253999 0.203199,-0.474132 0.474132,-0.474132 0.254,0 0.457199,0.220133 0.457199,0.474132 0,0.254 -0.203199,0.4572 -0.457199,0.4572 z m 14.299074,-2.04893 h -5.875855 c -1.117598,0 -1.710264,0.897465 -1.710264,1.777997 0,0.778932 0.440266,1.422397 1.388531,1.59173 0.761998,0.135466 1.015998,0.389466 0.728132,0.982131 l -0.626532,1.269998 c -1.676397,3.403593 -0.795865,7.467585 3.572926,7.484518 5.164657,0.01693 7.636918,-2.235195 7.636918,-6.587053 0,-4.148659 -1.43933,-6.519321 -5.113856,-6.519321 z m 2.929461,4.165592 -2.929461,7.061186 C 78.89189,38.786067 77.012294,39.1078 76.521228,37.36367 l -1.744129,-6.129854 c -0.321733,-1.151465 0.169333,-1.913463 1.608663,-2.184396 l 4.233325,-0.812799 c 1.286931,-0.253999 2.404529,0.592666 1.727197,2.235196 z m -8.551317,-2.421462 c -0.270933,0 -0.474132,-0.203199 -0.474132,-0.457199 0,-0.253999 0.203199,-0.474132 0.474132,-0.474132 0.254,0 0.457199,0.220133 0.457199,0.474132 0,0.254 -0.203199,0.457199 -0.457199,0.457199 z m 0.558799,8.703716 c -0.270933,0 -0.474132,-0.203199 -0.474132,-0.457199 0,-0.253999 0.203199,-0.474132 0.474132,-0.474132 0.254,0 0.457199,0.220133 0.457199,0.474132 0,0.254 -0.203199,0.457199 -0.457199,0.457199 z m 8.280384,-1.151464 c -0.270933,0 -0.474133,-0.2032 -0.474133,-0.457199 0,-0.254 0.2032,-0.474133 0.474133,-0.474133 0.253999,0 0.457199,0.220133 0.457199,0.474133 0,0.253999 -0.2032,0.457199 -0.457199,0.457199 z m 20.10511,-7.857051 0.13547,4.538124 c 0.0169,0.541866 -0.33867,1.134531 -0.98213,0.220133 l -3.403597,-4.910657 c -0.745065,-1.066798 -1.202264,-1.54093 -2.167462,-1.54093 -2.472262,0 -2.810928,3.674526 -2.201329,5.283189 0.186266,0.491066 0.626532,0.677332 0.863598,0.592666 0.541866,-0.186266 0.778932,-0.660399 0.457199,-1.507064 l -0.761998,-1.981196 c -0.237066,-0.626532 0.372533,-1.083731 0.846665,-0.457199 l 5.215454,6.97652 c 0.254,0.338666 0.3556,0.846665 -0.795863,0.846665 h -1.59173 c -2.692395,0 -2.404529,3.623726 0.08467,3.623726 1.219197,0 2.201326,-1.303864 2.878656,-2.421462 l 4.14866,-6.807187 c 0.47414,-0.761998 1.016,-1.659463 1.03293,-2.353728 0.0508,-2.302929 -3.82692,-2.455329 -3.75919,-0.1016 z m -5.486387,0.846665 c -0.270933,0 -0.474133,-0.2032 -0.474133,-0.457199 0,-0.254 0.2032,-0.474133 0.474133,-0.474133 0.253999,0 0.457199,0.220133 0.457199,0.474133 0,0.253999 -0.2032,0.457199 -0.457199,0.457199 z m 1.066797,9.347181 c -0.270932,0 -0.474132,-0.203199 -0.474132,-0.457199 0,-0.253999 0.2032,-0.474132 0.474132,-0.474132 0.254,0 0.4572,0.220133 0.4572,0.474132 0,0.254 -0.2032,0.457199 -0.4572,0.457199 z m 6.31612,-9.618114 c -0.27093,0 -0.47413,-0.2032 -0.47413,-0.457199 0,-0.254 0.2032,-0.474133 0.47413,-0.474133 0.254,0 0.4572,0.220133 0.4572,0.474133 0,0.253999 -0.2032,0.457199 -0.4572,0.457199 z m 8.99898,11.108245 c 3.94546,0 6.01132,-2.285996 6.01132,-6.72252 0,-4.436525 -2.06586,-6.654787 -6.01132,-6.654787 -3.92853,0 -5.99439,2.218262 -5.99439,6.654787 0,4.436524 2.06586,6.72252 5.99439,6.72252 z m 4.75826,-6.87492 -4.47039,5.401723 c -0.64347,0.761998 -1.7272,0.355599 -1.99813,-0.524933 l -2.286,-7.298252 c -0.49107,-1.59173 0.57573,-2.472262 1.9304,-1.930396 l 6.41772,2.573861 c 0.8128,0.321733 0.98213,1.083732 0.4064,1.777997 z m -2.86173,-3.979326 c -0.27093,0 -0.47413,-0.203199 -0.47413,-0.457199 0,-0.253999 0.2032,-0.474132 0.47413,-0.474132 0.254,0 0.4572,0.220133 0.4572,0.474132 0,0.254 -0.2032,0.457199 -0.4572,0.457199 z m -6.12986,6.400788 c -0.27093,0 -0.47413,-0.2032 -0.47413,-0.457199 0,-0.254 0.2032,-0.474133 0.47413,-0.474133 0.254,0 0.4572,0.220133 0.4572,0.474133 0,0.253999 -0.2032,0.457199 -0.4572,0.457199 z m 7.63692,2.150529 c -0.27093,0 -0.47413,-0.2032 -0.47413,-0.457199 0,-0.254 0.2032,-0.474133 0.47413,-0.474133 0.254,0 0.4572,0.220133 0.4572,0.474133 0,0.253999 -0.2032,0.457199 -0.4572,0.457199 z m 7.15325,-1.879596 3.45439,-3.74226 c 1.35466,-1.473197 -0.0339,-3.08186 -1.71026,-1.727196 l -1.96427,1.59173 c -0.3556,0.287866 -0.6604,0.169333 -0.79586,0.03387 -0.18627,-0.186267 -0.3048,-0.474133 0.0339,-0.863599 l 0.98214,-1.134531 c 0.74506,-0.863598 1.11759,-1.303864 1.11759,-1.930396 0,-0.812798 -0.57573,-1.422397 -1.54093,-1.422397 -1.21919,0 -1.69333,0.761998 -1.69333,2.235195 v 6.349988 c 0,3.268127 1.94733,4.792124 5.62186,4.792124 3.42053,0 5.75732,-2.031996 5.75732,-5.249323 v -5.486389 c 0,-1.879597 -0.69426,-2.641595 -1.9812,-2.641595 -1.81186,0 -2.25212,1.947329 -1.43933,3.149594 l 2.0828,3.08186 c 0.69427,1.032931 0.4572,1.94733 -0.54187,2.455329 l -4.80905,2.472261 c -1.45627,0.745066 -2.35373,0.643466 -2.86173,-0.06773 -0.508,-0.711198 -0.1016,-1.49013 0.28787,-1.896529 z m 7.70465,-7.17972 c -0.254,0 -0.4572,-0.203199 -0.4572,-0.457199 0,-0.253999 0.2032,-0.474132 0.4572,-0.474132 0.27093,0 0.47413,0.220133 0.47413,0.474132 0,0.254 -0.2032,0.457199 -0.47413,0.457199 z m -8.26345,0.118534 c -0.254,0 -0.4572,-0.2032 -0.4572,-0.4572 0,-0.253999 0.2032,-0.474132 0.4572,-0.474132 0.27093,0 0.47413,0.220133 0.47413,0.474132 0,0.254 -0.2032,0.4572 -0.47413,0.4572 z m 2.31986,3.539059 c -0.254,0 -0.4572,-0.203199 -0.4572,-0.457199 0,-0.253999 0.2032,-0.474132 0.4572,-0.474132 0.27093,0 0.47413,0.220133 0.47413,0.474132 0,0.254 -0.2032,0.457199 -0.47413,0.457199 z m 3.82692,6.197588 c -0.25399,0 -0.45719,-0.2032 -0.45719,-0.457199 0,-0.254 0.2032,-0.474132 0.45719,-0.474132 0.27094,0 0.47414,0.220132 0.47414,0.474132 0,0.253999 -0.2032,0.457199 -0.47414,0.457199 z m 14.73726,-9.194782 -0.99907,7.162786 c -0.0508,0.338666 -0.0677,0.643465 -0.0677,0.914398 0,1.74413 0.49107,2.370662 2.3368,2.370662 h 3.36972 c 1.778,0 2.50613,-0.965198 2.50613,-1.930396 0,-0.965198 -0.74506,-1.930396 -1.86266,-1.930396 -0.508,0 -1.10067,0.203199 -1.74413,0.694265 l -1.55787,1.202264 c -0.86359,0.660399 -1.35466,1.032932 -1.71026,1.032932 -0.28787,0 -0.6604,-0.287866 -0.6604,-0.728132 0,-0.338666 0.2032,-0.795865 0.49107,-1.320798 l 3.57292,-6.637853 c 0.32174,-0.609599 0.4572,-1.134531 0.4572,-1.574797 0,-1.286931 -1.08373,-1.930396 -2.04893,-1.930396 -1.15146,0 -1.82879,0.863598 -2.08279,2.675461 z m 5.09692,8.957716 c -0.27093,0 -0.47413,-0.2032 -0.47413,-0.457199 0,-0.254 0.2032,-0.474133 0.47413,-0.474133 0.254,0 0.4572,0.220133 0.4572,0.474133 0,0.253999 -0.2032,0.457199 -0.4572,0.457199 z m -3.08186,-9.330248 c -0.27093,0 -0.47413,-0.2032 -0.47413,-0.4572 0,-0.253999 0.2032,-0.474132 0.47413,-0.474132 0.254,0 0.4572,0.220133 0.4572,0.474132 0,0.254 -0.2032,0.4572 -0.4572,0.4572 z m 6.45896,1.710263 c 0,0.304799 0.13547,0.541865 0.5588,0.541865 h 0.72813 c 0.54187,0 0.84667,0.135467 0.84667,0.524933 0,0.08467 -0.0169,0.186266 -0.0508,0.304799 l -1.3716,5.012257 c -0.4572,1.69333 0.44026,2.980261 2.37066,2.980261 1.30387,0 2.65853,-0.575732 2.54,-1.710264 -0.1016,-0.982131 -0.93134,-1.083731 -1.64253,-0.778931 l -2.032,0.880531 c -0.32173,0.135467 -0.6096,-0.152399 -0.6096,-0.491065 0,-0.169333 0.0847,-0.3048 0.3556,-0.609599 l 3.23426,-3.69146 c 1.1176,-1.28693 0.54187,-2.726261 -1.1684,-2.523061 l -1.15146,0.135466 c -0.1524,0.01693 -0.44027,0.01693 -0.44027,-0.270933 0,-0.169333 0.1016,-0.321732 0.32174,-0.389466 l 1.86266,-0.643465 c 0.8128,-0.287866 1.38853,-0.728132 1.38853,-1.676397 0,-1.015998 -0.82973,-1.608663 -1.69333,-1.608663 -0.49107,0 -0.98213,0.186266 -1.33773,0.592665 l -1.91346,2.201329 c -0.42334,0.491066 -0.79587,0.948265 -0.79587,1.219198 z m 3.80999,-2.031996 c -0.27093,0 -0.47413,-0.2032 -0.47413,-0.457199 0,-0.254 0.2032,-0.474133 0.47413,-0.474133 0.254,0 0.4572,0.220133 0.4572,0.474133 0,0.253999 -0.2032,0.457199 -0.4572,0.457199 z m -0.1524,4.487324 c -0.27093,0 -0.47413,-0.203199 -0.47413,-0.457199 0,-0.253999 0.2032,-0.474132 0.47413,-0.474132 0.254,0 0.4572,0.220133 0.4572,0.474132 0,0.254 -0.2032,0.457199 -0.4572,0.457199 z m 6.98391,6.908787 c 1.7272,0 1.6764,-1.777997 0.57573,-3.081861 l -0.27093,-0.321733 c -0.4572,-0.558798 -0.7112,-1.134531 -0.47413,-1.507063 0.44026,-0.694266 1.03293,-0.3556 1.87959,0.287866 l 4.4196,3.352793 c 1.10066,0.829732 1.82879,1.269998 2.87866,1.269998 0.94826,0 1.64253,-1.083731 1.47319,-2.099729 -0.2032,-1.185331 -0.91439,-1.659464 -2.45533,-1.99813 l -5.30012,-1.151464 c -0.6604,-0.135467 -1.55786,-0.237066 -1.64253,-0.745065 -0.0677,-0.372533 0.0677,-0.761999 0.64347,-1.032932 l 5.89279,-2.827861 c 0.49106,-0.237066 0.96519,0.287866 0.81279,0.778932 l -0.62653,2.048929 c -0.23706,0.778932 0.23707,1.202265 0.762,1.236131 0.57573,0.01693 1.2192,-0.406399 1.08373,-1.354664 l -0.6096,-4.233325 c -0.2032,-1.43933 -1.15146,-1.998129 -2.16746,-1.998129 -1.1176,0 -1.54093,0.694265 -2.52306,1.862663 l -4.63973,5.520256 c -0.67733,0.795865 -1.54093,0.118533 -1.01599,-0.694266 l 2.11666,-3.23426 c 0.33867,-0.507999 0.5588,-1.066798 0.42333,-1.879596 -0.1524,-0.846665 -0.93133,-1.574797 -2.13359,-1.574797 -1.2192,0 -1.8288,0.863598 -1.74413,2.336795 l 0.59266,8.856116 c 0.11853,1.608664 1.08373,2.184396 2.04893,2.184396 z m -0.84666,-11.667044 c 0.254,0 0.45719,0.2032 0.45719,0.457199 0,0.254 -0.20319,0.474133 -0.45719,0.474133 -0.27094,0 -0.47414,-0.220133 -0.47414,-0.474133 0,-0.253999 0.2032,-0.457199 0.47414,-0.457199 z m 7.55225,-0.372533 c 0.254,0 0.4572,0.2032 0.4572,0.4572 0,0.253999 -0.2032,0.474132 -0.4572,0.474132 -0.27094,0 -0.47413,-0.220133 -0.47413,-0.474132 0,-0.254 0.20319,-0.4572 0.47413,-0.4572 z m 1.32079,9.736648 c 0.254,0 0.4572,0.2032 0.4572,0.457199 0,0.254 -0.2032,0.474132 -0.4572,0.474132 -0.27093,0 -0.47413,-0.220132 -0.47413,-0.474132 0,-0.253999 0.2032,-0.457199 0.47413,-0.457199 z m -8.51744,0.03387 c 0.25399,0 0.45719,0.203199 0.45719,0.457199 0,0.253999 -0.2032,0.474132 -0.45719,0.474132 -0.27094,0 -0.47414,-0.220133 -0.47414,-0.474132 0,-0.254 0.2032,-0.457199 0.47414,-0.457199 z m 23.20602,-0.4064 -7.45065,0.660399 c -0.98213,0.08467 -1.4224,-0.372533 -1.4224,-0.846665 0,-0.491066 0.38947,-0.829732 1.4224,-0.965198 l 6.06212,-0.745065 c 1.28693,-0.1524 1.7272,-0.931332 1.7272,-1.74413 0,-0.626532 -0.23707,-1.422397 -1.7272,-1.89653 l -6.60398,-2.099729 c -0.79587,-0.253999 -0.93134,-0.592665 -0.93134,-1.015998 0,-0.372533 0.4572,-1.066798 1.28693,-0.778932 l 6.92572,2.421462 c 1.45627,0.507999 2.21827,0.1016 2.26907,-0.914398 0.0508,-0.965198 -0.42334,-1.507064 -1.3208,-1.930396 -0.98213,-0.457199 -3.52213,-0.846665 -5.79119,-0.829732 -2.25213,0 -4.28412,0.507999 -4.28412,2.201329 0,0.626532 0.42333,1.236131 1.18533,1.777997 l 5.04612,3.505193 c 0.67733,0.474132 0.33867,1.100664 -0.44027,0.778931 l -3.38666,-1.38853 c -1.65946,-0.677332 -3.09879,0.135466 -3.09879,1.676397 0,3.08186 3.69146,4.82599 8.02638,4.82599 3.03107,0 4.064,-0.694265 4.064,-1.761063 0,-0.541866 -0.28787,-1.049865 -1.55787,-0.931332 z m -0.1524,-8.026384 c -0.27093,0 -0.47413,-0.203199 -0.47413,-0.457199 0,-0.253999 0.2032,-0.474132 0.47413,-0.474132 0.254,0 0.4572,0.220133 0.4572,0.474132 0,0.254 -0.2032,0.457199 -0.4572,0.457199 z m -8.63598,6.112921 c -0.27093,0 -0.47413,-0.203199 -0.47413,-0.457199 0,-0.253999 0.2032,-0.474132 0.47413,-0.474132 0.254,0 0.4572,0.220133 0.4572,0.474132 0,0.254 -0.2032,0.457199 -0.4572,0.457199 z m 8.77145,3.606793 c -0.27093,0 -0.47413,-0.203199 -0.47413,-0.457199 0,-0.253999 0.2032,-0.474132 0.47413,-0.474132 0.254,0 0.4572,0.220133 0.4572,0.474132 0,0.254 -0.2032,0.457199 -0.4572,0.457199 z m -1.4732,-5.012256 c -0.27093,0 -0.47413,-0.2032 -0.47413,-0.4572 0,-0.253999 0.2032,-0.474132 0.47413,-0.474132 0.254,0 0.4572,0.220133 0.4572,0.474132 0,0.254 -0.2032,0.4572 -0.4572,0.4572 z"
         id="path1" />
      <path
         style="font-weight:500;-inkscape-font-specification:'Pilowlava Medium'"
         d="m 22.110351,54.059903 -2.726262,-7.924784 c -0.338666,-0.965198 -0.169333,-1.354664 0.287866,-1.354664 0.1524,0 0.338666,0.08467 0.507999,0.270933 l 1.89653,2.116662 c 1.557864,1.727197 4.063992,0.745065 4.063992,-1.202264 0,-0.863599 -0.558799,-1.879597 -2.319862,-1.879597 h -5.791189 c -3.064927,0 -4.92759,1.69333 -4.92759,4.047059 0,1.049865 0.812798,1.981196 1.89653,2.015063 1.54093,0.0508 2.031996,-1.066798 2.031996,-3.403593 v -0.745066 c 0,-0.745065 0.169333,-1.303864 0.745065,-1.303864 0.457199,0 0.643465,0.440266 0.660399,1.507064 l 0.186266,8.280384 c 0.03387,1.79493 0.372532,2.726261 1.998129,2.726261 1.811863,0 2.184396,-1.303864 1.490131,-3.149594 z m -1.473197,1.337731 c -0.270933,0 -0.474133,-0.2032 -0.474133,-0.457199 0,-0.254 0.2032,-0.474133 0.474133,-0.474133 0.253999,0 0.457199,0.220133 0.457199,0.474133 0,0.253999 -0.2032,0.457199 -0.457199,0.457199 z m -5.621856,-7.044253 c -0.270933,0 -0.474132,-0.2032 -0.474132,-0.457199 0,-0.254 0.203199,-0.474132 0.474132,-0.474132 0.253999,0 0.457199,0.220132 0.457199,0.474132 0,0.253999 -0.2032,0.457199 -0.457199,0.457199 z m 9.093182,-1.879596 c -0.270933,0 -0.474132,-0.2032 -0.474132,-0.457199 0,-0.254 0.203199,-0.474133 0.474132,-0.474133 0.254,0 0.457199,0.220133 0.457199,0.474133 0,0.253999 -0.203199,0.457199 -0.457199,0.457199 z m 8.619035,-2.641595 c -3.928525,0 -5.994388,2.285995 -5.994388,6.72252 0,4.436525 2.065863,6.654787 5.994388,6.654787 3.945459,0 6.011322,-2.218262 6.011322,-6.654787 0,-4.436525 -2.065863,-6.72252 -6.011322,-6.72252 z m 0.287866,1.473197 4.470391,5.401723 c 0.575733,0.694265 0.4064,1.456264 -0.406399,1.777996 l -6.41772,2.573862 c -1.354664,0.541866 -2.421462,-0.338666 -1.930397,-1.930396 l 2.285996,-7.298253 c 0.270933,-0.880531 1.354664,-1.28693 1.998129,-0.524932 z m 1.608664,9.381048 c 0.253999,0 0.457199,0.2032 0.457199,0.457199 0,0.254 -0.2032,0.474133 -0.457199,0.474133 -0.270933,0 -0.474133,-0.220133 -0.474133,-0.474133 0,-0.253999 0.2032,-0.457199 0.474133,-0.457199 z M 28.49419,48.285648 c 0.254,0 0.457199,0.203199 0.457199,0.457199 0,0.253999 -0.203199,0.474132 -0.457199,0.474132 -0.270933,0 -0.474132,-0.220133 -0.474132,-0.474132 0,-0.254 0.203199,-0.457199 0.474132,-0.457199 z m 7.636918,-2.150529 c 0.254,0 0.4572,0.203199 0.4572,0.457199 0,0.253999 -0.2032,0.474132 -0.4572,0.474132 -0.270932,0 -0.474132,-0.220133 -0.474132,-0.474132 0,-0.254 0.2032,-0.457199 0.474132,-0.457199 z m 14.05461,11.074378 c 1.727196,0 1.676397,-1.777996 0.575732,-3.081861 l -0.270933,-0.321732 c -0.457199,-0.558799 -0.711198,-1.134531 -0.474132,-1.507064 0.440266,-0.694265 1.032931,-0.355599 1.879596,0.287866 l 4.419591,3.352794 c 1.100665,0.829731 1.828797,1.269997 2.878661,1.269997 0.948265,0 1.642531,-1.083731 1.473198,-2.099729 -0.2032,-1.185331 -0.914399,-1.659464 -2.455329,-1.99813 l -5.300123,-1.151464 c -0.660399,-0.135466 -1.557863,-0.237066 -1.64253,-0.745065 -0.06773,-0.372533 0.06773,-0.761999 0.643465,-1.032932 l 5.892789,-2.827861 c 0.491066,-0.237066 0.965198,0.287866 0.812798,0.778932 l -0.626532,2.048929 c -0.237066,0.778932 0.237066,1.202265 0.761999,1.236131 0.575732,0.01693 1.219197,-0.406399 1.083731,-1.354664 L 59.2281,45.830319 c -0.2032,-1.43933 -1.151464,-1.998129 -2.167462,-1.998129 -1.117598,0 -1.540931,0.694265 -2.523062,1.862663 l -4.639724,5.520256 c -0.677332,0.795865 -1.540931,0.118533 -1.015998,-0.694266 l 2.116662,-3.23426 c 0.338666,-0.507999 0.558799,-1.066798 0.423333,-1.879596 -0.1524,-0.846665 -0.931332,-1.574797 -2.133596,-1.574797 -1.219198,0 -1.828796,0.863598 -1.74413,2.336795 l 0.592666,8.856116 c 0.118533,1.608664 1.083731,2.184396 2.048929,2.184396 z M 49.339053,45.542453 c 0.253999,0 0.457199,0.2032 0.457199,0.457199 0,0.254 -0.2032,0.474133 -0.457199,0.474133 -0.270933,0 -0.474133,-0.220133 -0.474133,-0.474133 0,-0.253999 0.2032,-0.457199 0.474133,-0.457199 z m 7.552252,-0.372532 c 0.253999,0 0.457199,0.203199 0.457199,0.457199 0,0.253999 -0.2032,0.474132 -0.457199,0.474132 -0.270933,0 -0.474133,-0.220133 -0.474133,-0.474132 0,-0.254 0.2032,-0.457199 0.474133,-0.457199 z m 1.320797,9.736647 c 0.254,0 0.457199,0.2032 0.457199,0.457199 0,0.254 -0.203199,0.474133 -0.457199,0.474133 -0.270933,0 -0.474132,-0.220133 -0.474132,-0.474133 0,-0.253999 0.203199,-0.457199 0.474132,-0.457199 z m -8.51745,0.03387 c 0.254,0 0.457199,0.203199 0.457199,0.457199 0,0.253999 -0.203199,0.474132 -0.457199,0.474132 -0.270933,0 -0.474132,-0.220133 -0.474132,-0.474132 0,-0.254 0.203199,-0.457199 0.474132,-0.457199 z M 72.859399,43.83219 c -1.828797,0 -1.811864,1.574797 -1.185331,3.471326 l 1.913462,5.774256 c 0.118534,0.372532 0.3048,1.134531 0.3048,1.608663 0,0.965198 -0.440266,1.676397 -1.388531,1.676397 -0.609599,0 -1.134531,-0.440266 -0.999064,-1.303864 L 71.657134,54.09377 C 71.877267,52.688306 71.149135,51.299775 70.45487,50.385377 L 67.305276,46.219785 C 66.069145,44.594188 65.57808,43.83219 64.545148,43.83219 c -1.100664,0 -1.811863,0.745065 -1.845729,2.370662 l -0.186267,7.840118 c -0.03387,1.557864 0.338666,3.18346 2.015063,3.18346 1.422397,0 1.862663,-1.100664 1.862663,-1.964262 0,-0.4064 0.169333,-1.015998 -0.389466,-2.031996 l -2.235196,-4.013193 c -0.287866,-0.507999 -0.355599,-0.948264 -0.355599,-1.253064 0,-0.372532 0.2032,-0.558799 0.626532,-0.558799 0.3048,0 0.507999,0.237066 0.948265,0.880532 l 4.436525,6.434654 c 1.066798,1.557864 1.879596,2.506128 3.08186,2.506128 1.964263,0 2.370662,-1.33773 2.539995,-5.13079 l 0.186267,-4.131725 c 0.118533,-2.455328 -0.1524,-4.131725 -2.370662,-4.131725 z m 0.372532,2.455328 c -0.270933,0 -0.474132,-0.203199 -0.474132,-0.457199 0,-0.253999 0.203199,-0.474132 0.474132,-0.474132 0.254,0 0.457199,0.220133 0.457199,0.474132 0,0.254 -0.203199,0.457199 -0.457199,0.457199 z m -4.165592,5.740389 c -0.270932,0 -0.474132,-0.203199 -0.474132,-0.457199 0,-0.253999 0.2032,-0.474132 0.474132,-0.474132 0.254,0 0.457199,0.220133 0.457199,0.474132 0,0.254 -0.203199,0.457199 -0.457199,0.457199 z m -4.555057,3.572927 c -0.270933,0 -0.474133,-0.2032 -0.474133,-0.4572 0,-0.253999 0.2032,-0.474132 0.474133,-0.474132 0.253999,0 0.457199,0.220133 0.457199,0.474132 0,0.254 -0.2032,0.4572 -0.457199,0.4572 z M 83.070177,43.83219 c -3.928526,0 -5.994388,2.285995 -5.994388,6.72252 0,4.436525 2.065862,6.654787 5.994388,6.654787 3.945459,0 6.011322,-2.218262 6.011322,-6.654787 0,-4.436525 -2.065863,-6.72252 -6.011322,-6.72252 z m 0.287866,1.473197 4.470391,5.401723 c 0.575733,0.694265 0.4064,1.456264 -0.406399,1.777996 l -6.417721,2.573862 c -1.354664,0.541866 -2.421461,-0.338666 -1.930396,-1.930396 l 2.285996,-7.298253 c 0.270933,-0.880531 1.354664,-1.28693 1.998129,-0.524932 z m 1.608664,9.381048 c 0.253999,0 0.457199,0.2032 0.457199,0.457199 0,0.254 -0.2032,0.474133 -0.457199,0.474133 -0.270933,0 -0.474133,-0.220133 -0.474133,-0.474133 0,-0.253999 0.2032,-0.457199 0.474133,-0.457199 z m -6.129855,-6.400787 c 0.254,0 0.457199,0.203199 0.457199,0.457199 0,0.253999 -0.203199,0.474132 -0.457199,0.474132 -0.270933,0 -0.474132,-0.220133 -0.474132,-0.474132 0,-0.254 0.203199,-0.457199 0.474132,-0.457199 z m 7.636918,-2.150529 c 0.254,0 0.457199,0.203199 0.457199,0.457199 0,0.253999 -0.203199,0.474132 -0.457199,0.474132 -0.270932,0 -0.474132,-0.220133 -0.474132,-0.474132 0,-0.254 0.2032,-0.457199 0.474132,-0.457199 z m 18.52501,0.761998 2.42146,3.33586 c 0.18626,0.254 0.28786,0.491066 0.28786,0.745066 0,0.304799 -0.13546,0.626532 -0.35559,1.015998 l -0.6604,1.219197 c -0.47414,0.880532 -0.8636,1.032932 -1.33773,1.032932 -0.69427,0 -1.0668,-0.558799 -1.27,-1.422398 l -1.2192,-5.367856 c -0.254,-1.083731 -0.67733,-1.422397 -1.3208,-1.422397 -0.762,0 -1.42239,0.575732 -1.96426,1.388531 l -3.860792,5.774255 c -0.541866,0.812798 -0.829732,1.117598 -1.269997,1.117598 -0.609599,0 -0.914399,-0.3556 -0.914399,-0.863599 0,-0.457199 0.237067,-0.829731 0.643466,-1.456263 l 2.455328,-3.894659 c 0.626532,-0.982132 1.049865,-1.84573 1.049865,-2.573862 0,-1.015998 -0.778932,-1.69333 -2.692395,-1.69333 -2.726261,0 -4.385725,3.217327 -4.385725,5.554122 0,0.440266 0.389466,0.711199 0.694266,0.711199 0.541865,0 0.863598,-0.304799 0.948265,-1.032931 l 0.406399,-3.081861 c 0.08467,-0.643465 0.474132,-0.897465 0.863598,-0.897465 0.423333,0 0.660399,0.372533 0.541866,1.032931 l -1.507064,7.552252 c -0.06773,0.3556 -0.08467,0.677332 -0.08467,0.982132 0,1.676396 1.015998,2.556928 2.404529,2.556928 0.694265,0 1.523997,-0.372533 2.082796,-1.151464 l 4.724391,-6.620921 c 0.16933,-0.237066 0.38947,-0.457199 0.6096,-0.457199 0.27093,0 0.3556,0.186266 0.3556,0.372533 0,0.118533 -0.0169,0.287866 -0.0847,0.423332 l -1.27,2.692395 c -1.388527,2.929461 -0.86359,4.741324 1.65947,4.741324 3.64066,0 5.70652,-4.910657 5.70652,-8.212651 0,-3.894659 -0.79587,-5.164656 -2.11666,-5.164656 -1.30387,0 -2.15053,0.761998 -2.15053,1.710263 0,0.423333 0.254,0.863599 0.6096,1.354664 z m -10.19385,9.194782 c -0.270933,0 -0.474133,-0.203199 -0.474133,-0.457199 0,-0.253999 0.2032,-0.474132 0.474133,-0.474132 0.253999,0 0.457199,0.220133 0.457199,0.474132 0,0.254 -0.2032,0.457199 -0.457199,0.457199 z m 11.71784,-10.00758 c -0.27093,0 -0.47413,-0.2032 -0.47413,-0.457199 0,-0.254 0.2032,-0.474133 0.47413,-0.474133 0.254,0 0.4572,0.220133 0.4572,0.474133 0,0.253999 -0.2032,0.457199 -0.4572,0.457199 z m -4.01319,9.059315 c -0.27093,0 -0.47413,-0.203199 -0.47413,-0.457199 0,-0.253999 0.2032,-0.474132 0.47413,-0.474132 0.254,0 0.4572,0.220133 0.4572,0.474132 0,0.254 -0.2032,0.457199 -0.4572,0.457199 z m -1.6256,-6.485454 c -0.27093,0 -0.47413,-0.203199 -0.47413,-0.457199 0,-0.253999 0.2032,-0.474132 0.47413,-0.474132 0.254,0 0.4572,0.220133 0.4572,0.474132 0,0.254 -0.2032,0.457199 -0.4572,0.457199 z m -4.978386,-2.370662 c -0.270932,0 -0.474132,-0.203199 -0.474132,-0.457199 0,-0.253999 0.2032,-0.474132 0.474132,-0.474132 0.254,0 0.457199,0.220133 0.457199,0.474132 0,0.254 -0.203199,0.457199 -0.457199,0.457199 z"
         id="path2" />
      <path
         style="fill:#b2aaff"
         d="m 127.48619,48.946047 0.44026,3.014127 c 0.18627,1.236131 -0.0677,1.777997 -0.60959,1.777997 -0.32174,0 -0.6604,-0.2032 -0.9144,-0.829732 l -2.7432,-6.654787 c -0.72813,-1.761063 -1.84573,-2.438395 -3.18346,-2.438395 -1.96426,0 -3.09879,1.320797 -3.09879,5.13079 v 3.572926 c 0,2.455328 0.27093,4.690524 2.48919,4.690524 1.8288,0 2.1844,-1.727197 1.4732,-3.471326 l -2.3368,-5.740389 c -0.15239,-0.372533 -0.37253,-1.134531 -0.37253,-1.608664 0,-0.965198 0.5588,-1.676396 1.50707,-1.676396 0.77893,0 1.47319,0.440265 1.33773,1.303864 l -0.1524,0.965198 c -0.22014,1.405464 0.13546,2.929461 0.64346,3.945459 l 1.96427,3.894659 c 0.91439,1.828796 1.54093,2.387595 2.31986,2.387595 1.13453,0 1.67639,-1.032931 2.18439,-2.726261 l 2.67546,-8.839183 c 0.4572,-1.507064 2.25213,-1.015998 1.86267,0.389466 l -1.91347,6.756387 c -0.18626,0.660398 -0.55879,1.727196 -0.55879,2.455328 0,0.863599 0.44026,1.964263 1.86266,1.964263 0.94826,0 2.06586,-0.592665 2.04893,-2.523062 l -0.0339,-5.638789 c -0.0169,-4.097858 -0.88053,-5.215456 -3.01413,-5.215456 -2.67546,0 -4.33492,1.964263 -3.87772,5.113857 z m -7.89092,6.587053 c -0.27093,0 -0.47413,-0.203199 -0.47413,-0.457199 0,-0.253999 0.2032,-0.474132 0.47413,-0.474132 0.254,0 0.4572,0.220133 0.4572,0.474132 0,0.254 -0.2032,0.457199 -0.4572,0.457199 z m 3.43746,-5.841988 c -0.27093,0 -0.47413,-0.2032 -0.47413,-0.457199 0,-0.254 0.2032,-0.474133 0.47413,-0.474133 0.254,0 0.4572,0.220133 0.4572,0.474133 0,0.253999 -0.2032,0.457199 -0.4572,0.457199 z m 5.82506,-2.218263 c -0.27094,0 -0.47414,-0.203199 -0.47414,-0.457199 0,-0.253999 0.2032,-0.474132 0.47414,-0.474132 0.25399,0 0.45719,0.220133 0.45719,0.474132 0,0.254 -0.2032,0.457199 -0.45719,0.457199 z m 3.70839,7.840118 c -0.27093,0 -0.47413,-0.203199 -0.47413,-0.457199 0,-0.253999 0.2032,-0.474132 0.47413,-0.474132 0.254,0 0.4572,0.220133 0.4572,0.474132 0,0.254 -0.2032,0.457199 -0.4572,0.457199 z m 9.95677,-11.480777 c -3.92852,0 -5.99439,2.285995 -5.99439,6.72252 0,4.436525 2.06587,6.654787 5.99439,6.654787 3.94546,0 6.01132,-2.218262 6.01132,-6.654787 0,-4.436525 -2.06586,-6.72252 -6.01132,-6.72252 z m 0.28787,1.473197 4.47039,5.401723 c 0.57573,0.694265 0.4064,1.456264 -0.4064,1.777996 l -6.41772,2.573862 c -1.35467,0.541866 -2.42146,-0.338666 -1.9304,-1.930396 l 2.286,-7.298253 c 0.27093,-0.880531 1.35466,-1.28693 1.99813,-0.524932 z m 1.60866,9.381048 c 0.254,0 0.4572,0.2032 0.4572,0.457199 0,0.254 -0.2032,0.474133 -0.4572,0.474133 -0.27093,0 -0.47413,-0.220133 -0.47413,-0.474133 0,-0.253999 0.2032,-0.457199 0.47413,-0.457199 z m -6.12985,-6.400787 c 0.254,0 0.4572,0.203199 0.4572,0.457199 0,0.253999 -0.2032,0.474132 -0.4572,0.474132 -0.27094,0 -0.47414,-0.220133 -0.47414,-0.474132 0,-0.254 0.2032,-0.457199 0.47414,-0.457199 z m 7.63691,-2.150529 c 0.254,0 0.4572,0.203199 0.4572,0.457199 0,0.253999 -0.2032,0.474132 -0.4572,0.474132 -0.27093,0 -0.47413,-0.220133 -0.47413,-0.474132 0,-0.254 0.2032,-0.457199 0.47413,-0.457199 z m 17.11955,8.940782 c 0,-1.049864 -0.84667,-1.74413 -1.96427,-1.761063 l -3.33586,-0.03387 c -0.64346,0 -0.9144,-0.135466 -0.9144,-0.524932 0,-0.406399 0.32174,-0.609599 0.72814,-0.745065 l 2.77706,-0.982131 c 2.38759,-0.846666 2.81092,-1.879597 2.81092,-3.031061 0,-1.523997 -0.99906,-4.165592 -5.18158,-4.165592 -5.14773,0 -7.56919,4.385725 -7.56919,10.143047 0,2.421462 1.1684,3.23426 2.21826,3.23426 1.9304,0 2.1336,-1.49013 1.4732,-3.047994 l -1.7272,-4.063992 c -0.13546,-0.321733 -0.22013,-0.660399 -0.22013,-0.982131 0,-1.202265 0.94826,-2.235196 2.69239,-2.235196 h 5.30013 c 1.23613,0 1.87959,0.643465 1.87959,1.473197 0,0.880532 -0.59266,1.69333 -2.40452,1.456264 l -5.14773,-0.660399 c -0.62653,-0.08467 -0.9652,0.03387 -0.98213,0.474133 0,0.237066 0.16933,0.592665 0.54187,1.066797 l 4.18252,5.063057 c 0.93133,1.134531 1.8288,1.456264 2.50613,1.456264 1.76106,0 2.3368,-1.066798 2.3368,-2.133596 z m -5.02919,-9.059315 c -0.27094,0 -0.47414,-0.2032 -0.47414,-0.457199 0,-0.254 0.2032,-0.474133 0.47414,-0.474133 0.25399,0 0.45719,0.220133 0.45719,0.474133 0,0.253999 -0.2032,0.457199 -0.45719,0.457199 z m -5.53719,9.499581 c -0.27094,0 -0.47414,-0.2032 -0.47414,-0.457199 0,-0.254 0.2032,-0.474132 0.47414,-0.474132 0.254,0 0.4572,0.220132 0.4572,0.474132 0,0.253999 -0.2032,0.457199 -0.4572,0.457199 z m 8.28038,0.169333 c -0.27093,0 -0.47413,-0.2032 -0.47413,-0.457199 0,-0.254 0.2032,-0.474132 0.47413,-0.474132 0.254,0 0.4572,0.220132 0.4572,0.474132 0,0.253999 -0.2032,0.457199 -0.4572,0.457199 z m -4.67359,-4.453458 c -0.27093,0 -0.47413,-0.203199 -0.47413,-0.457199 0,-0.254 0.2032,-0.474132 0.47413,-0.474132 0.254,0 0.4572,0.220132 0.4572,0.474132 0,0.254 -0.2032,0.457199 -0.4572,0.457199 z m 11.83636,-5.350923 7.45065,0.660399 c 1.27,0.118533 1.55786,-0.389466 1.55786,-0.931332 0,-1.066797 -1.03293,-1.761063 -4.06399,-1.761063 -4.33492,0 -8.02638,1.74413 -8.02638,4.825991 0,1.54093 1.43933,2.353729 3.09879,1.676396 l 3.38666,-1.38853 c 0.77893,-0.321733 1.1176,0.304799 0.44027,0.778932 l -5.04613,3.505193 c -0.762,0.541865 -1.18533,1.151464 -1.18533,1.777996 0,1.69333 2.032,2.201329 4.28413,2.201329 2.26906,0.01693 4.80905,-0.372532 5.79118,-0.829731 0.89747,-0.423333 1.3716,-0.965198 1.3208,-1.930397 -0.0508,-1.015998 -0.8128,-1.422397 -2.26906,-0.914398 l -6.92572,2.421462 c -0.82973,0.287866 -1.28693,-0.406399 -1.28693,-0.778932 0,-0.423332 0.13547,-0.761998 0.93133,-1.015998 l 6.60399,-2.099729 c 1.49013,-0.474132 1.72719,-1.269997 1.72719,-1.89653 0,-0.812798 -0.44026,-1.59173 -1.72719,-1.744129 l -6.06212,-0.745066 c -1.03294,-0.135466 -1.4224,-0.474132 -1.4224,-0.965198 0,-0.474132 0.44026,-0.931331 1.4224,-0.846665 z m 7.29825,8.686783 c 0.254,0 0.4572,0.2032 0.4572,0.457199 0,0.254 -0.2032,0.474133 -0.4572,0.474133 -0.27093,0 -0.47413,-0.220133 -0.47413,-0.474133 0,-0.253999 0.2032,-0.457199 0.47413,-0.457199 z m -8.63598,-6.112921 c 0.254,0 0.45719,0.203199 0.45719,0.457199 0,0.253999 -0.20319,0.474132 -0.45719,0.474132 -0.27094,0 -0.47414,-0.220133 -0.47414,-0.474132 0,-0.254 0.2032,-0.457199 0.47414,-0.457199 z m 8.77144,-3.606793 c 0.254,0 0.4572,0.2032 0.4572,0.457199 0,0.254 -0.2032,0.474132 -0.4572,0.474132 -0.27093,0 -0.47413,-0.220132 -0.47413,-0.474132 0,-0.253999 0.2032,-0.457199 0.47413,-0.457199 z m -1.47319,5.012257 c 0.254,0 0.4572,0.203199 0.4572,0.457199 0,0.253999 -0.2032,0.474132 -0.4572,0.474132 -0.27093,0 -0.47413,-0.220133 -0.47413,-0.474132 0,-0.254 0.2032,-0.457199 0.47413,-0.457199 z"
         id="path3" />
      <path
         style="font-weight:500;-inkscape-font-specification:'Pilowlava Medium'"
         d="m 186.14306,46.778584 -4.63972,5.571056 c -0.11854,0.135466 -0.16934,0.304799 -0.16934,0.440266 0,0.253999 0.16934,0.474132 0.44027,0.474132 0.0847,0 0.18627,-0.01693 0.28787,-0.08467 l 3.91159,-2.319863 c 1.81186,-1.066797 2.96333,-1.896529 2.96333,-3.657592 0,-2.472262 -2.4384,-3.403594 -5.02919,-3.403594 -3.11573,0 -5.70653,0.880532 -5.53719,3.014128 0.0847,1.100664 0.6604,1.371597 1.33773,1.371597 0.4572,0 1.08373,-0.186266 1.64253,-0.541866 l 3.64066,-2.302928 c 0.3556,-0.220133 0.7112,-0.372533 1.016,-0.372533 0.44026,0 0.76199,0.220133 0.76199,0.626532 0,0.3048 -0.16933,0.711199 -0.62653,1.185331 z m -1.28693,9.262515 c 0.11853,-1.354664 -1.1176,-1.676396 -2.23519,-1.676396 -1.1684,0 -1.45627,0.558799 -1.524,1.269997 -0.11854,1.286931 1.3208,1.676397 2.43839,1.676397 0.6604,0 1.25307,-0.338666 1.3208,-1.269998 z m -4.14866,-9.668914 c -0.27093,0 -0.47413,-0.2032 -0.47413,-0.457199 0,-0.254 0.2032,-0.474133 0.47413,-0.474133 0.254,0 0.4572,0.220133 0.4572,0.474133 0,0.253999 -0.2032,0.457199 -0.4572,0.457199 z m 5.82506,2.590795 c -0.27094,0 -0.47413,-0.2032 -0.47413,-0.457199 0,-0.254 0.20319,-0.474133 0.47413,-0.474133 0.254,0 0.4572,0.220133 0.4572,0.474133 0,0.253999 -0.2032,0.457199 -0.4572,0.457199 z"
         id="path4" />
    </g>
  </g>
</svg>
