<?xml version="1.0" encoding="UTF-8" standalone="no"?>
<!-- Created with Inkscape (http://www.inkscape.org/) -->

<svg
   xmlns:dc="http://purl.org/dc/elements/1.1/"
   xmlns:cc="http://creativecommons.org/ns#"
   xmlns:rdf="http://www.w3.org/1999/02/22-rdf-syntax-ns#"
   xmlns:svg="http://www.w3.org/2000/svg"
   xmlns="http://www.w3.org/2000/svg"
   xmlns:sodipodi="http://sodipodi.sourceforge.net/DTD/sodipodi-0.dtd"
   xmlns:inkscape="http://www.inkscape.org/namespaces/inkscape"
   width="52.990608mm"
   height="18.018126mm"
   viewBox="0 0 52.990608 18.018126"
   version="1.1"
   id="svg1582"
   inkscape:version="0.92.5 (2060ec1f9f, 2020-04-08)"
   sodipodi:docname="wyltkm-agency-lower-light.svg">
  <defs
     id="defs1576" />
  <sodipodi:namedview
     id="base"
     pagecolor="#ffffff"
     bordercolor="#666666"
     borderopacity="1.0"
     inkscape:pageopacity="0.0"
     inkscape:pageshadow="2"
     inkscape:zoom="0.98994949"
     inkscape:cx="59.573594"
     inkscape:cy="25.859905"
     inkscape:document-units="mm"
     inkscape:current-layer="flowRoot815-8"
     showgrid="false"
     inkscape:window-width="986"
     inkscape:window-height="613"
     inkscape:window-x="2421"
     inkscape:window-y="411"
     inkscape:window-maximized="0"
     fit-margin-top="0"
     fit-margin-left="0"
     fit-margin-right="0"
     fit-margin-bottom="0" />
  <metadata
     id="metadata1579">
    <rdf:RDF>
      <cc:Work
         rdf:about="">
        <dc:format>image/svg+xml</dc:format>
        <dc:type
           rdf:resource="http://purl.org/dc/dcmitype/StillImage" />
        <dc:title></dc:title>
      </cc:Work>
    </rdf:RDF>
  </metadata>
  <g
     inkscape:label="Layer 1"
     inkscape:groupmode="layer"
     id="layer1"
     transform="translate(-27.349827,-112.46825)">
    <g
       aria-label="Would you like to know more?"
       transform="matrix(0.26458333,0,0,0.26458333,13.972494,36.440183)"
       style="font-style:normal;font-weight:normal;font-size:40px;line-height:1.25;font-family:sans-serif;letter-spacing:0px;word-spacing:0px;fill:#000000;fill-opacity:1;stroke:none"
       id="flowRoot815-8">
      <path
         d="m 69.92,317.95016 h -4.48 l -2.72,-17.32 q -0.08,-0.48 -0.08,-1.12 0,-0.68 -0.08,-1.68 -0.08,1 -0.08,1.68 0,0.64 -0.08,1.12 l -2.72,17.32 H 55.2 l -4.48,-30.6 h 4.64 l 2.36,18.12 q 0.08,0.52 0.08,1.16 0,0.64 0.08,1.64 0.08,-1 0.08,-1.64 0,-0.64 0.08,-1.16 l 2.64,-18.12 h 3.76 l 2.64,18.12 q 0.08,0.56 0.08,1.2 0,0.6 0.08,1.6 0.08,-1 0.08,-1.6 0,-0.64 0.08,-1.2 l 2.36,-18.12 h 4.64 z"
         style="font-style:normal;font-variant:normal;font-weight:normal;font-stretch:normal;line-height:0;font-family:AgencyFB;-inkscape-font-specification:AgencyFB;text-align:justify;text-anchor:start;fill:#9b9c9e;fill-opacity:1"
         id="path2139"
         inkscape:connector-curvature="0" />
      <path
         d="m 89.719934,315.47016 q 0,2.44 -2.48,2.44 h -8 q -2.52,0 -2.52,-2.44 v -14.84 q 0,-2.44 2.52,-2.44 h 8 q 2.48,0 2.48,2.44 z m -4.36,-13.56 h -4.24 v 12.28 h 4.24 z"
         style="font-style:normal;font-variant:normal;font-weight:normal;font-stretch:normal;line-height:0;font-family:AgencyFB;-inkscape-font-specification:AgencyFB;text-align:justify;text-anchor:start;fill:#9b9c9e;fill-opacity:1"
         id="path2141"
         inkscape:connector-curvature="0" />
      <path
         d="m 101.63986,317.91016 v -0.68 l -4.719997,0.64 q -0.4,0.08 -0.8,0.12 -0.4,0.04 -0.72,0.04 -2.44,0 -2.44,-2.44 v -17.4 h 4.44 v 16 l 4.239997,-0.08 v -15.92 h 4.44 v 19.72 z"
         style="font-style:normal;font-variant:normal;font-weight:normal;font-stretch:normal;line-height:0;font-family:AgencyFB;-inkscape-font-specification:AgencyFB;text-align:justify;text-anchor:start;fill:#9b9c9e;fill-opacity:1"
         id="path2143"
         inkscape:connector-curvature="0" />
      <path
         d="m 109.4398,317.91016 v -30.56 h 4.4 v 30.56 z"
         style="font-style:normal;font-variant:normal;font-weight:normal;font-stretch:normal;line-height:0;font-family:AgencyFB;-inkscape-font-specification:AgencyFB;text-align:justify;text-anchor:start;fill:#9b9c9e;fill-opacity:1"
         id="path2145"
         inkscape:connector-curvature="0" />
      <path
         d="m 125.79977,317.91016 v -0.68 l -3.4,0.6 q -0.88,0.2 -1.68,0.2 -1.68,0 -2.64,-0.96 -0.96,-1 -0.96,-2.72 v -12.2 q 0,-1.8 1.08,-2.88 1.08,-1.08 3.04,-1.08 h 4.56 v -10.84 h 4.44 v 30.56 z m 0,-16 h -2.76 q -1.48,0 -1.48,1.48 v 9.44 q 0,1.44 1.4,1.44 0.16,0 0.4,0 0.24,0 0.44,-0.04 l 2,-0.16 z"
         style="font-style:normal;font-variant:normal;font-weight:normal;font-stretch:normal;line-height:0;font-family:AgencyFB;-inkscape-font-specification:AgencyFB;text-align:justify;text-anchor:start;fill:#9b9c9e;fill-opacity:1"
         id="path2147"
         inkscape:connector-curvature="0" />
      <path
         d="m 152.79628,325.11016 h -4.56 l 2.04,-7.36 -5,-19.56 h 4.6 l 2.6,12.96 2.6,-12.96 h 4.56 z"
         style="font-style:normal;font-variant:normal;font-weight:normal;font-stretch:normal;line-height:0;font-family:AgencyFB;-inkscape-font-specification:AgencyFB;text-align:justify;text-anchor:start;fill:#9b9c9e;fill-opacity:1"
         id="path2149"
         inkscape:connector-curvature="0" />
      <path
         d="m 174.83628,315.47016 q 0,2.44 -2.48,2.44 h -8 q -2.52,0 -2.52,-2.44 v -14.84 q 0,-2.44 2.52,-2.44 h 8 q 2.48,0 2.48,2.44 z m -4.36,-13.56 h -4.24 v 12.28 h 4.24 z"
         style="font-style:normal;font-variant:normal;font-weight:normal;font-stretch:normal;line-height:0;font-family:AgencyFB;-inkscape-font-specification:AgencyFB;text-align:justify;text-anchor:start;fill:#9b9c9e;fill-opacity:1"
         id="path2151"
         inkscape:connector-curvature="0" />
      <path
         d="m 186.75621,317.91016 v -0.68 l -4.72,0.64 q -0.4,0.08 -0.8,0.12 -0.4,0.04 -0.72,0.04 -2.44,0 -2.44,-2.44 v -17.4 h 4.44 v 16 l 4.24,-0.08 v -15.92 h 4.44 v 19.72 z"
         style="font-style:normal;font-variant:normal;font-weight:normal;font-stretch:normal;line-height:0;font-family:AgencyFB;-inkscape-font-specification:AgencyFB;text-align:justify;text-anchor:start;fill:#9b9c9e;fill-opacity:1"
         id="path2153"
         inkscape:connector-curvature="0" />
      <path
         d="m 207.35271,317.91016 v -30.56 h 4.4 v 30.56 z"
         style="font-style:normal;font-variant:normal;font-weight:normal;font-stretch:normal;line-height:0;font-family:AgencyFB;-inkscape-font-specification:AgencyFB;text-align:justify;text-anchor:start;fill:#9b9c9e;fill-opacity:1"
         id="path2155"
         inkscape:connector-curvature="0" />
      <path
         d="m 215.15267,295.35016 v -4.6 h 4.48 v 4.6 z m 0.04,22.56 v -19.72 h 4.4 v 19.72 z"
         style="font-style:normal;font-variant:normal;font-weight:normal;font-stretch:normal;line-height:0;font-family:AgencyFB;-inkscape-font-specification:AgencyFB;text-align:justify;text-anchor:start;fill:#9b9c9e;fill-opacity:1"
         id="path2157"
         inkscape:connector-curvature="0" />
      <path
         d="m 231.31264,317.91016 -3.92,-9.04 v 9.04 h -4.48 v -30.56 h 4.48 v 18.36 l 3.52,-7.52 h 4.68 v 0.08 l -4.56,8.96 5.04,10.6 v 0.08 z"
         style="font-style:normal;font-variant:normal;font-weight:normal;font-stretch:normal;line-height:0;font-family:AgencyFB;-inkscape-font-specification:AgencyFB;text-align:justify;text-anchor:start;fill:#9b9c9e;fill-opacity:1"
         id="path2159"
         inkscape:connector-curvature="0" />
      <path
         d="m 250.75259,315.47016 q 0,2.44 -2.52,2.44 h -7.72 q -2.52,0 -2.52,-2.44 v -14.84 q 0,-2.44 2.52,-2.44 h 7.72 q 2.52,0 2.52,2.44 v 7.24 l -1.24,1.24 h -7.24 v 5.52 h 4.2 v -3.28 h 4.28 z m -4.28,-14 h -4.2 v 4.72 h 4.2 z"
         style="font-style:normal;font-variant:normal;font-weight:normal;font-stretch:normal;line-height:0;font-family:AgencyFB;-inkscape-font-specification:AgencyFB;text-align:justify;text-anchor:start;fill:#9b9c9e;fill-opacity:1"
         id="path2161"
         inkscape:connector-curvature="0" />
      <path
         d="m 55.16,355.41016 q -2.48,0 -2.48,-2.44 v -13.48 h -2.12 v -3.8 h 2.12 v -5.36 h 4.44 v 5.36 H 60 v 3.8 h -2.88 v 12.12 h 3 v 3.8 z"
         style="font-style:normal;font-variant:normal;font-weight:normal;font-stretch:normal;line-height:0;font-family:AgencyFB;-inkscape-font-specification:AgencyFB;text-align:justify;text-anchor:start;fill:#9b9c9e;fill-opacity:1"
         id="path2163"
         inkscape:connector-curvature="0" />
      <path
         d="m 75.599985,352.97016 q 0,2.44 -2.48,2.44 h -8 q -2.52,0 -2.52,-2.44 v -14.84 q 0,-2.44 2.52,-2.44 h 8 q 2.48,0 2.48,2.44 z m -4.36,-13.56 h -4.24 v 12.28 h 4.24 z"
         style="font-style:normal;font-variant:normal;font-weight:normal;font-stretch:normal;line-height:0;font-family:AgencyFB;-inkscape-font-specification:AgencyFB;text-align:justify;text-anchor:start;fill:#9b9c9e;fill-opacity:1"
         id="path2165"
         inkscape:connector-curvature="0" />
      <path
         d="m 95.479889,355.41016 -3.92,-9.04 v 9.04 h -4.48 v -30.56 h 4.48 v 18.36 l 3.52,-7.52 h 4.68 v 0.08 l -4.56,8.96 5.040001,10.6 v 0.08 z"
         style="font-style:normal;font-variant:normal;font-weight:normal;font-stretch:normal;line-height:0;font-family:AgencyFB;-inkscape-font-specification:AgencyFB;text-align:justify;text-anchor:start;fill:#9b9c9e;fill-opacity:1"
         id="path2167"
         inkscape:connector-curvature="0" />
      <path
         d="m 110.83984,355.41016 v -16 l -4.2,0.08 v 15.92 h -4.48 v -19.72 h 4.48 v 0.72 l 4.72,-0.64 q 0.4,-0.08 0.8,-0.12 0.4,-0.04 0.72,-0.04 2.44,0 2.44,2.4 v 17.4 z"
         style="font-style:normal;font-variant:normal;font-weight:normal;font-stretch:normal;line-height:0;font-family:AgencyFB;-inkscape-font-specification:AgencyFB;text-align:justify;text-anchor:start;fill:#9b9c9e;fill-opacity:1"
         id="path2169"
         inkscape:connector-curvature="0" />
      <path
         d="m 131.51978,352.97016 q 0,2.44 -2.48,2.44 h -8 q -2.52,0 -2.52,-2.44 v -14.84 q 0,-2.44 2.52,-2.44 h 8 q 2.48,0 2.48,2.44 z m -4.36,-13.56 h -4.24 v 12.28 h 4.24 z"
         style="font-style:normal;font-variant:normal;font-weight:normal;font-stretch:normal;line-height:0;font-family:AgencyFB;-inkscape-font-specification:AgencyFB;text-align:justify;text-anchor:start;fill:#9b9c9e;fill-opacity:1"
         id="path2171"
         inkscape:connector-curvature="0" />
      <path
         d="m 150.03971,355.45016 h -3.92 l -2.12,-10.92 -2.12,10.92 h -3.88 l -4.24,-19.76 h 4.28 l 2.16,12.6 2.12,-12.6 h 3.4 l 2.12,12.6 2.16,-12.6 h 4.28 z"
         style="font-style:normal;font-variant:normal;font-weight:normal;font-stretch:normal;line-height:0;font-family:AgencyFB;-inkscape-font-specification:AgencyFB;text-align:justify;text-anchor:start;fill:#9b9c9e;fill-opacity:1"
         id="path2173"
         inkscape:connector-curvature="0" />
      <path
         d="m 182.03966,355.41016 v -16 l -4.2,0.08 v 15.92 h -4.44 v -16 l -4.2,0.08 v 15.92 h -4.48 v -19.72 h 4.48 v 0.72 l 4.68,-0.64 q 0.4,-0.08 0.8,-0.12 0.44,-0.04 0.76,-0.04 0.72,0 1.2,0.24 0.48,0.2 0.68,0.44 l 0.12,0.2 5.16,-0.72 q 0.36,-0.08 0.72,-0.12 0.4,-0.04 0.72,-0.04 2.44,0 2.44,2.4 v 17.4 z"
         style="font-style:normal;font-variant:normal;font-weight:normal;font-stretch:normal;line-height:0;font-family:AgencyFB;-inkscape-font-specification:AgencyFB;text-align:justify;text-anchor:start;fill:#9b9c9e;fill-opacity:1"
         id="path2175"
         inkscape:connector-curvature="0" />
      <path
         d="m 202.67961,352.97016 q 0,2.44 -2.48,2.44 h -8 q -2.52,0 -2.52,-2.44 v -14.84 q 0,-2.44 2.52,-2.44 h 8 q 2.48,0 2.48,2.44 z m -4.36,-13.56 h -4.24 v 12.28 h 4.24 z"
         style="font-style:normal;font-variant:normal;font-weight:normal;font-stretch:normal;line-height:0;font-family:AgencyFB;-inkscape-font-specification:AgencyFB;text-align:justify;text-anchor:start;fill:#9b9c9e;fill-opacity:1"
         id="path2177"
         inkscape:connector-curvature="0" />
      <path
         d="m 213.91953,343.93016 v -4.52 l -3.52,0.08 v 15.92 h -4.48 v -19.72 h 4.48 v 0.72 l 4.08,-0.64 q 0.36,-0.08 0.72,-0.12 0.4,-0.04 0.72,-0.04 2.44,0 2.44,2.4 v 5.92 z"
         style="font-style:normal;font-variant:normal;font-weight:normal;font-stretch:normal;line-height:0;font-family:AgencyFB;-inkscape-font-specification:AgencyFB;text-align:justify;text-anchor:start;fill:#9b9c9e;fill-opacity:1"
         id="path2179"
         inkscape:connector-curvature="0" />
      <path
         d="m 233.63948,352.97016 q 0,2.44 -2.52,2.44 h -7.72 q -2.52,0 -2.52,-2.44 v -14.84 q 0,-2.44 2.52,-2.44 h 7.72 q 2.52,0 2.52,2.44 v 7.24 l -1.24,1.24 h -7.24 v 5.52 h 4.2 v -3.28 h 4.28 z m -4.28,-14 h -4.2 v 4.72 h 4.2 z"
         style="font-style:normal;font-variant:normal;font-weight:normal;font-stretch:normal;line-height:0;font-family:AgencyFB;-inkscape-font-specification:AgencyFB;text-align:justify;text-anchor:start;fill:#9b9c9e;fill-opacity:1"
         id="path2181"
         inkscape:connector-curvature="0" />
      <path
         d="m 250.83946,333.97016 q 0,0.88 -0.2,1.44 -0.16,0.52 -0.6,1.12 l -4.44,6 v 5.76 h -4.44 v -5.2 q 0,-0.92 0.16,-1.48 0.2,-0.56 0.64,-1.16 l 4.4,-5.96 v -5.84 h -5.16 v 5.56 h -4.48 v -6.56 q 0,-2.8 2.8,-2.8 h 8.52 q 1.32,0 2.04,0.72 0.76,0.72 0.76,2.08 z m -9.76,21.44 v -4.68 h 4.6 v 4.68 z"
         style="font-style:normal;font-variant:normal;font-weight:normal;font-stretch:normal;line-height:0;font-family:AgencyFB;-inkscape-font-specification:AgencyFB;text-align:justify;text-anchor:start;fill:#9b9c9e;fill-opacity:1"
         id="path2183"
         inkscape:connector-curvature="0" />
    </g>
  </g>
</svg>
