<?xml version="1.0" encoding="UTF-8" standalone="no"?>
<svg
   xmlns:dc="http://purl.org/dc/elements/1.1/"
   xmlns:cc="http://creativecommons.org/ns#"
   xmlns:rdf="http://www.w3.org/1999/02/22-rdf-syntax-ns#"
   xmlns:svg="http://www.w3.org/2000/svg"
   xmlns="http://www.w3.org/2000/svg"
   id="svg865"
   version="1.1"
   viewBox="0 0 59.08757 18.652719"
   height="18.652719mm"
   width="59.08757mm">
  <defs
     id="defs859" />
  <metadata
     id="metadata862">
    <rdf:RDF>
      <cc:Work
         rdf:about="">
        <dc:format>image/svg+xml</dc:format>
        <dc:type
           rdf:resource="http://purl.org/dc/dcmitype/StillImage" />
        <dc:title></dc:title>
      </cc:Work>
    </rdf:RDF>
  </metadata>
  <g
     transform="translate(-12.620222,-135.14682)"
     id="layer1">
    <g
       id="flowRoot815"
       style="font-style:normal;font-weight:normal;font-size:40px;line-height:1.25;font-family:sans-serif;letter-spacing:0px;word-spacing:0px;fill:#000000;fill-opacity:1;stroke:none"
       transform="matrix(0.26458333,0,0,0.26458333,-0.74652753,59.118754)"
       aria-label="WOULD YOU LIKE TO KNOW MORE?">
      <g
         style="fill:#4b4b4d;fill-opacity:1"
         id="g1492">
        <path
           d="m 69.92,317.95016 h -4.48 l -2.72,-17.32 q -0.08,-0.48 -0.08,-1.12 0,-0.68 -0.08,-1.68 -0.08,1 -0.08,1.68 0,0.64 -0.08,1.12 l -2.72,17.32 H 55.2 l -4.48,-30.6 h 4.64 l 2.36,18.12 q 0.08,0.52 0.08,1.16 0,0.64 0.08,1.64 0.08,-1 0.08,-1.64 0,-0.64 0.08,-1.16 l 2.64,-18.12 h 3.76 l 2.64,18.12 q 0.08,0.56 0.08,1.2 0,0.6 0.08,1.6 0.08,-1 0.08,-1.6 0,-0.64 0.08,-1.2 l 2.36,-18.12 h 4.64 z"
           style="font-style:normal;font-variant:normal;font-weight:normal;font-stretch:normal;line-height:0;font-family:AgencyFB;-inkscape-font-specification:AgencyFB;text-align:justify;text-anchor:start;fill:#4b4b4d;fill-opacity:1"
           id="path1422" />
        <path
           d="m 92.359934,315.11016 q 0,1.36 -0.72,2.08 -0.72,0.72 -2.04,0.72 h -9.92 q -2.72,0 -2.72,-2.8 v -24.96 q 0,-2.8 2.72,-2.8 h 9.92 q 1.32,0 2.04,0.72 0.72,0.72 0.72,2.08 z m -4.56,-23.84 h -6.28 v 22.72 h 6.28 z"
           style="font-style:normal;font-variant:normal;font-weight:normal;font-stretch:normal;line-height:0;font-family:AgencyFB;-inkscape-font-specification:AgencyFB;text-align:justify;text-anchor:start;fill:#4b4b4d;fill-opacity:1"
           id="path1424" />
        <path
           d="m 111.31991,315.11016 q 0,2.8 -2.8,2.8 h -9.720005 q -2.76,0 -2.76,-2.8 v -27.76 h 4.560005 v 26.64 h 6.16 v -26.64 h 4.56 z"
           style="font-style:normal;font-variant:normal;font-weight:normal;font-stretch:normal;line-height:0;font-family:AgencyFB;-inkscape-font-specification:AgencyFB;text-align:justify;text-anchor:start;fill:#4b4b4d;fill-opacity:1"
           id="path1426" />
        <path
           d="m 114.99987,317.91016 v -30.56 h 4.56 v 26.48 h 7.44 v 4.08 z"
           style="font-style:normal;font-variant:normal;font-weight:normal;font-stretch:normal;line-height:0;font-family:AgencyFB;-inkscape-font-specification:AgencyFB;text-align:justify;text-anchor:start;fill:#4b4b4d;fill-opacity:1"
           id="path1428" />
        <path
           d="m 144.95979,312.15016 q 0,2.64 -1.6,4.2 -1.56,1.56 -4.32,1.56 h -9.32 v -30.56 h 9.32 q 2.8,0 4.36,1.6 1.56,1.56 1.56,4.2 z m -4.6,-18.32 q 0,-1.24 -0.72,-1.88 -0.72,-0.68 -1.96,-0.68 h -3.4 v 22.72 h 3.28 q 1.4,0 2.08,-0.68 0.72,-0.72 0.72,-1.92 z"
           style="font-style:normal;font-variant:normal;font-weight:normal;font-stretch:normal;line-height:0;font-family:AgencyFB;-inkscape-font-specification:AgencyFB;text-align:justify;text-anchor:start;fill:#4b4b4d;fill-opacity:1"
           id="path1430" />
        <path
           d="m 166.08156,306.67016 v 11.24 h -4.6 v -11.24 l -6.04,-19.16 v -0.16 h 4.72 l 3.64,13.28 3.64,-13.28 h 4.68 v 0.16 z"
           style="font-style:normal;font-variant:normal;font-weight:normal;font-stretch:normal;line-height:0;font-family:AgencyFB;-inkscape-font-specification:AgencyFB;text-align:justify;text-anchor:start;fill:#4b4b4d;fill-opacity:1"
           id="path1432" />
        <path
           d="m 189.88152,315.11016 q 0,1.36 -0.72,2.08 -0.72,0.72 -2.04,0.72 h -9.92 q -2.72,0 -2.72,-2.8 v -24.96 q 0,-2.8 2.72,-2.8 h 9.92 q 1.32,0 2.04,0.72 0.72,0.72 0.72,2.08 z m -4.56,-23.84 h -6.28 v 22.72 h 6.28 z"
           style="font-style:normal;font-variant:normal;font-weight:normal;font-stretch:normal;line-height:0;font-family:AgencyFB;-inkscape-font-specification:AgencyFB;text-align:justify;text-anchor:start;fill:#4b4b4d;fill-opacity:1"
           id="path1434" />
        <path
           d="m 208.8415,315.11016 q 0,2.8 -2.8,2.8 h -9.72 q -2.76,0 -2.76,-2.8 v -27.76 h 4.56 v 26.64 h 6.16 v -26.64 h 4.56 z"
           style="font-style:normal;font-variant:normal;font-weight:normal;font-stretch:normal;line-height:0;font-family:AgencyFB;-inkscape-font-specification:AgencyFB;text-align:justify;text-anchor:start;fill:#4b4b4d;fill-opacity:1"
           id="path1436" />
        <path
           d="m 220.80323,317.91016 v -30.56 h 4.56 v 26.48 h 7.44 v 4.08 z"
           style="font-style:normal;font-variant:normal;font-weight:normal;font-stretch:normal;line-height:0;font-family:AgencyFB;-inkscape-font-specification:AgencyFB;text-align:justify;text-anchor:start;fill:#4b4b4d;fill-opacity:1"
           id="path1438" />
        <path
           d="m 235.60315,317.91016 v -30.56 h 4.56 v 30.56 z"
           style="font-style:normal;font-variant:normal;font-weight:normal;font-stretch:normal;line-height:0;font-family:AgencyFB;-inkscape-font-specification:AgencyFB;text-align:justify;text-anchor:start;fill:#4b4b4d;fill-opacity:1"
           id="path1440" />
        <path
           d="m 254.28311,317.91016 -5.8,-13.64 v 13.64 h -4.56 v -30.56 h 4.56 v 12.92 l 5.08,-12.92 h 5 v 0.2 l -6.2,14.52 6.96,15.64 v 0.2 z"
           style="font-style:normal;font-variant:normal;font-weight:normal;font-stretch:normal;line-height:0;font-family:AgencyFB;-inkscape-font-specification:AgencyFB;text-align:justify;text-anchor:start;fill:#4b4b4d;fill-opacity:1"
           id="path1442" />
        <path
           d="m 261.1631,317.91016 v -30.56 h 12.56 v 4.04 h -8 v 8.92 h 6.88 v 3.96 h -6.88 v 9.6 h 8.12 v 4.04 z"
           style="font-style:normal;font-variant:normal;font-weight:normal;font-stretch:normal;line-height:0;font-family:AgencyFB;-inkscape-font-specification:AgencyFB;text-align:justify;text-anchor:start;fill:#4b4b4d;fill-opacity:1"
           id="path1444" />
        <path
           d="m 60.08,331.28863 v 26.52 h -4.56 v -26.52 h -5 v -4.04 h 14.6 v 4.04 z"
           style="font-style:normal;font-variant:normal;font-weight:normal;font-stretch:normal;line-height:0;font-family:AgencyFB;-inkscape-font-specification:AgencyFB;text-align:justify;text-anchor:start;fill:#4b4b4d;fill-opacity:1"
           id="path1446" />
        <path
           d="m 82.839976,355.00863 q 0,1.36 -0.72,2.08 -0.72,0.72 -2.04,0.72 h -9.92 q -2.72,0 -2.72,-2.8 v -24.96 q 0,-2.8 2.72,-2.8 h 9.92 q 1.32,0 2.04,0.72 0.72,0.72 0.72,2.08 z m -4.56,-23.84 h -6.28 v 22.72 h 6.28 z"
           style="font-style:normal;font-variant:normal;font-weight:normal;font-stretch:normal;line-height:0;font-family:AgencyFB;-inkscape-font-specification:AgencyFB;text-align:justify;text-anchor:start;fill:#4b4b4d;fill-opacity:1"
           id="path1448" />
        <path
           d="m 105.11992,357.80863 -5.799998,-13.64 v 13.64 h -4.56 v -30.56 h 4.56 v 12.92 l 5.079998,-12.92 h 5 v 0.2 l -6.2,14.52 6.96,15.64 v 0.2 z"
           style="font-style:normal;font-variant:normal;font-weight:normal;font-stretch:normal;line-height:0;font-family:AgencyFB;-inkscape-font-specification:AgencyFB;text-align:justify;text-anchor:start;fill:#4b4b4d;fill-opacity:1"
           id="path1450" />
        <path
           d="m 123.47991,357.80863 -7.32,-19.24 q 0.04,0.4 0.12,0.8 0.08,0.32 0.12,0.72 0.04,0.36 0.04,0.68 v 17.04 h -4.44 v -30.56 h 4 l 7.32,18.84 q -0.08,-0.4 -0.16,-0.8 -0.08,-0.32 -0.12,-0.68 0,-0.4 0,-0.72 v -16.64 h 4.44 v 30.56 z"
           style="font-style:normal;font-variant:normal;font-weight:normal;font-stretch:normal;line-height:0;font-family:AgencyFB;-inkscape-font-specification:AgencyFB;text-align:justify;text-anchor:start;fill:#4b4b4d;fill-opacity:1"
           id="path1452" />
        <path
           d="m 146.55984,355.00863 q 0,1.36 -0.72,2.08 -0.72,0.72 -2.04,0.72 h -9.92 q -2.72,0 -2.72,-2.8 v -24.96 q 0,-2.8 2.72,-2.8 h 9.92 q 1.32,0 2.04,0.72 0.72,0.72 0.72,2.08 z m -4.56,-23.84 h -6.28 v 22.72 h 6.28 z"
           style="font-style:normal;font-variant:normal;font-weight:normal;font-stretch:normal;line-height:0;font-family:AgencyFB;-inkscape-font-specification:AgencyFB;text-align:justify;text-anchor:start;fill:#4b4b4d;fill-opacity:1"
           id="path1454" />
        <path
           d="m 168.31981,357.84863 h -4.48 l -2.72,-17.32 q -0.08,-0.48 -0.08,-1.12 0,-0.68 -0.08,-1.68 -0.08,1 -0.08,1.68 0,0.64 -0.08,1.12 l -2.72,17.32 h -4.48 l -4.48,-30.6 h 4.64 l 2.36,18.12 q 0.08,0.52 0.08,1.16 0,0.64 0.08,1.64 0.08,-1 0.08,-1.64 0,-0.64 0.08,-1.16 l 2.64,-18.12 h 3.76 l 2.64,18.12 q 0.08,0.56 0.08,1.2 0,0.6 0.08,1.6 0.08,-1 0.08,-1.6 0,-0.64 0.08,-1.2 l 2.36,-18.12 h 4.64 z"
           style="font-style:normal;font-variant:normal;font-weight:normal;font-stretch:normal;line-height:0;font-family:AgencyFB;-inkscape-font-specification:AgencyFB;text-align:justify;text-anchor:start;fill:#4b4b4d;fill-opacity:1"
           id="path1456" />
        <path
           d="m 197.67972,357.80863 v -15.08 q 0,-0.44 0,-1 0.04,-0.56 0.12,-1.08 0.08,-0.6 0.16,-1.24 l -3.96,15.6 h -2.32 l -3.96,-15.6 q 0.04,0.64 0.12,1.24 0.08,0.52 0.12,1.08 0.04,0.56 0.04,1 v 15.08 h -4.4 v -30.56 h 4.32 l 4.8,16.88 q 0.04,0.12 0.04,0.36 0,0.2 0.04,0.44 0,0.28 0.04,0.6 0,-0.32 0.04,-0.6 0,-0.48 0.08,-0.8 l 4.8,-16.88 h 4.32 v 30.56 z"
           style="font-style:normal;font-variant:normal;font-weight:normal;font-stretch:normal;line-height:0;font-family:AgencyFB;-inkscape-font-specification:AgencyFB;text-align:justify;text-anchor:start;fill:#4b4b4d;fill-opacity:1"
           id="path1458" />
        <path
           d="m 221.1197,355.00863 q 0,1.36 -0.72,2.08 -0.72,0.72 -2.04,0.72 h -9.92 q -2.72,0 -2.72,-2.8 v -24.96 q 0,-2.8 2.72,-2.8 h 9.92 q 1.32,0 2.04,0.72 0.72,0.72 0.72,2.08 z m -4.56,-23.84 h -6.28 v 22.72 h 6.28 z"
           style="font-style:normal;font-variant:normal;font-weight:normal;font-stretch:normal;line-height:0;font-family:AgencyFB;-inkscape-font-specification:AgencyFB;text-align:justify;text-anchor:start;fill:#4b4b4d;fill-opacity:1"
           id="path1460" />
        <path
           d="m 235.67967,357.80863 -5.04,-14.2 v -2.76 h 4.48 v -9.68 h -5.76 v 26.64 h -4.56 v -30.56 h 12.12 q 2.76,0 2.76,2.8 v 11.12 q 0,2.72 -2.72,2.8 h -1.56 l 5.04,13.68 v 0.16 z"
           style="font-style:normal;font-variant:normal;font-weight:normal;font-stretch:normal;line-height:0;font-family:AgencyFB;-inkscape-font-specification:AgencyFB;text-align:justify;text-anchor:start;fill:#4b4b4d;fill-opacity:1"
           id="path1462" />
        <path
           d="m 243.23961,357.80863 v -30.56 h 12.56 v 4.04 h -8 v 8.92 h 6.88 v 3.96 h -6.88 v 9.6 h 8.12 v 4.04 z"
           style="font-style:normal;font-variant:normal;font-weight:normal;font-stretch:normal;line-height:0;font-family:AgencyFB;-inkscape-font-specification:AgencyFB;text-align:justify;text-anchor:start;fill:#4b4b4d;fill-opacity:1"
           id="path1464" />
        <path
           d="m 272.75955,336.36863 q 0,0.88 -0.2,1.44 -0.16,0.52 -0.6,1.12 l -4.44,6 v 5.76 h -4.44 v -5.2 q 0,-0.92 0.16,-1.48 0.2,-0.56 0.64,-1.16 l 4.4,-5.96 v -5.84 h -5.16 v 5.56 h -4.48 v -6.56 q 0,-2.8 2.8,-2.8 h 8.52 q 1.32,0 2.04,0.72 0.76,0.72 0.76,2.08 z m -9.76,21.44 v -4.68 h 4.6 v 4.68 z"
           style="font-style:normal;font-variant:normal;font-weight:normal;font-stretch:normal;line-height:0;font-family:AgencyFB;-inkscape-font-specification:AgencyFB;text-align:justify;text-anchor:start;fill:#4b4b4d;fill-opacity:1"
           id="path1466" />
      </g>
    </g>
  </g>
</svg>
