<?xml version="1.0" encoding="UTF-8" standalone="no"?>
<!-- Created with Inkscape (http://www.inkscape.org/) -->

<svg
   width="74.573921mm"
   height="6.5404997mm"
   viewBox="0 0 74.573921 6.5404998"
   version="1.1"
   id="svg364"
   sodipodi:docname="wyltkm-first-line.svg"
   inkscape:version="1.2 (dc2aeda, 2022-05-15)"
   xmlns:inkscape="http://www.inkscape.org/namespaces/inkscape"
   xmlns:sodipodi="http://sodipodi.sourceforge.net/DTD/sodipodi-0.dtd"
   xmlns="http://www.w3.org/2000/svg"
   xmlns:svg="http://www.w3.org/2000/svg">
  <sodipodi:namedview
     id="namedview37"
     pagecolor="#ffffff"
     bordercolor="#666666"
     borderopacity="1.0"
     inkscape:showpageshadow="2"
     inkscape:pageopacity="0.0"
     inkscape:pagecheckerboard="0"
     inkscape:deskcolor="#d1d1d1"
     inkscape:document-units="mm"
     showgrid="false"
     inkscape:zoom="2.4533962"
     inkscape:cx="138.7872"
     inkscape:cy="9.9861571"
     inkscape:window-width="1848"
     inkscape:window-height="1016"
     inkscape:window-x="72"
     inkscape:window-y="27"
     inkscape:window-maximized="1"
     inkscape:current-layer="text275" />
  <defs
     id="defs361">
    <rect
       x="96.007095"
       y="549.60358"
       width="282.49496"
       height="96.744431"
       id="rect277" />
  </defs>
  <g
     id="layer1"
     transform="translate(-67.89357,-103.07528)">
    <g
       aria-label="WOULD YOU LIKE TO KNOW MORE? "
       transform="matrix(0.26458333,0,0,0.26458333,42.406837,-43.229433)"
       id="text275"
       style="font-size:40px;line-height:0.75;font-family:PhutureODC;-inkscape-font-specification:PhutureODC;text-align:justify;letter-spacing:0px;word-spacing:0px;white-space:pre;shape-inside:url(#rect277);display:inline">
      <path
         d="m 124.80781,574.00272 v -0.12 -19.12 q 0,-0.88 -0.6,-1.32 -0.56,-0.44 -1.2,-0.44 -0.6,0 -1.2,0.44 -0.56,0.44 -0.56,1.32 v 18.64 q 0,0.32 -0.2,0.52 -0.16,0.2 -0.6,0.2 h -7.96 v -19.36 q 0,-0.92 -0.6,-1.32 -0.6,-0.44 -1.2,-0.44 -0.6,0 -1.2,0.44 -0.6,0.4 -0.6,1.32 v 19.28 h -8.2 q 0,0 -0.4,-0.08 -0.359997,-0.12 -0.359997,-0.72 v -18.48 q 0,-0.92 -0.600001,-1.32 -0.6,-0.44 -1.199999,-0.44 -0.600001,0 -1.2,0.44 -0.600001,0.4 -0.600001,1.32 v 19.12 q 0,0.96 0.32,1.68 0.36,0.68 0.920001,1.16 0.599999,0.48 1.319999,0.72 0.72,0.24 1.479998,0.24 h 8.12 q 0.6,0 1.12,-0.16 0.56,-0.16 1,-0.44 0.52,0.32 1.12,0.44 0.6,0.16 1.2,0.16 h 7.92 q 1.44,0 2.48,-0.84 1.08,-0.8 1.36,-2.12 l 0.04,-0.12 q 0.04,-0.2 0.04,-0.28 0,-0.08 0,-0.08 z"
         id="path402" />
      <path
         d="m 147.40776,573.64272 v -16.8 q 0,-1.76 -1.08,-2.8 -1.08,-1.08 -2.84,-1.08 h -14.12 q -1.68,0 -2.8,1.08 -1.12,1.08 -1.12,2.76 v 16.92 q 0,0.84 0.32,1.56 0.36,0.68 0.92,1.2 0.56,0.52 1.28,0.8 0.72,0.32 1.52,0.32 h 14.04 q 1.88,0 2.88,-1 1,-1.04 1,-2.96 z m -3.48,-0.36 q 0,0.4 -0.2,0.56 -0.2,0.12 -0.4,0.16 -0.16,0 -0.2,0 h -13.4 q -0.6,0 -0.68,-0.32 -0.04,-0.36 -0.04,-0.36 v -16.16 q 0,-0.44 0.4,-0.52 0.4,-0.12 0.4,-0.12 h 13.32 q 0,0 0.4,0.12 0.4,0.08 0.4,0.64 z"
         id="path404" />
      <path
         d="m 169.16771,573.76272 v -19.04 q 0,-0.92 -0.6,-1.32 -0.56,-0.44 -1.2,-0.44 -0.6,0 -1.2,0.44 -0.56,0.4 -0.56,1.32 v 18.68 q 0,0 -0.08,0.32 -0.08,0.28 -0.68,0.28 h -12.56 q -0.4,0 -0.56,-0.16 -0.12,-0.16 -0.12,-0.28 0,-0.12 0,-0.16 l 0.04,-18.68 q 0,-0.92 -0.6,-1.32 -0.6,-0.44 -1.2,-0.44 -0.6,0 -1.2,0.44 -0.6,0.4 -0.6,1.32 v 19.04 q 0,0.84 0.32,1.56 0.32,0.72 0.88,1.24 0.56,0.48 1.28,0.76 0.76,0.28 1.56,0.28 h 13.04 q 0.8,0 1.52,-0.24 0.72,-0.24 1.28,-0.72 0.56,-0.48 0.88,-1.2 0.36,-0.72 0.36,-1.68 z"
         id="path406" />
      <path
         d="m 187.44766,575.76272 q 0,-0.64 -0.48,-1.2 -0.44,-0.6 -1.36,-0.6 h -11.44 q -0.6,0 -0.68,-0.2 -0.08,-0.24 -0.12,-0.4 v -18.56 q 0,-0.88 -0.56,-1.32 -0.56,-0.48 -1.24,-0.48 -0.64,0 -1.2,0.48 -0.56,0.44 -0.56,1.32 v 18.92 0.12 q 0,0.84 0.36,1.52 0.36,0.68 0.92,1.2 0.6,0.48 1.32,0.72 0.72,0.28 1.48,0.28 h 11.76 q 0.88,0 1.32,-0.6 0.48,-0.56 0.48,-1.2 z"
         id="path408" />
      <path
         d="m 210.08761,572.68272 v -14.56 q 0,-1.2 -0.44,-2.12 -0.4,-0.96 -1.16,-1.64 -0.72,-0.68 -1.72,-1.04 -1,-0.36 -2.16,-0.36 h -14.76 q -0.72,0 -1.24,0.56 -0.52,0.52 -0.52,1.24 v 21.04 q 0,0.68 0.48,1.24 0.52,0.6 1.32,0.6 h 15.28 q 2.12,0 3.52,-1.32 1.4,-1.36 1.4,-3.64 z m -3.6,0 q 0,1.36 -1.48,1.36 h -13.36 v -17.52 h 13.12 q 0.96,0 1.32,0.4 0.4,0.36 0.4,1 v 0.72 z"
         id="path410" />
      <path
         d="m 247.83495,573.72272 -0.04,-10.44 -0.04,-8.48 q 0,-0.88 -0.56,-1.32 -0.56,-0.48 -1.2,-0.48 -0.68,0 -1.24,0.48 -0.52,0.44 -0.52,1.32 l -0.04,8.4 q 0,0.28 -0.16,0.32 -0.12,0.04 -0.24,0.04 h -13.16 q -0.36,0 -0.4,-0.2 0,-0.2 0,-0.2 v -8.4 q 0,-0.92 -0.6,-1.32 -0.56,-0.44 -1.2,-0.44 -0.6,0 -1.2,0.44 -0.56,0.4 -0.56,1.32 v 8.56 q 0,0.96 0.36,1.68 0.36,0.72 0.92,1.2 0.6,0.48 1.36,0.76 0.76,0.24 1.56,0.24 h 12.92 q 0,0 0.28,0.08 0.28,0.08 0.28,0.4 v 5.64 q 0,0.04 0,0.2 0,0.12 -0.16,0.28 -0.12,0.16 -0.52,0.16 h -15.36 q -0.92,0 -1.36,0.6 -0.4,0.6 -0.4,1.24 0,0.6 0.4,1.2 0.44,0.6 1.36,0.6 h 15.56 q 1.68,0 2.8,-0.96 1.16,-0.96 1.16,-2.92 z"
         id="path412" />
      <path
         d="m 270.43488,573.64272 v -16.8 q 0,-1.76 -1.08,-2.8 -1.08,-1.08 -2.84,-1.08 h -14.12 q -1.68,0 -2.8,1.08 -1.12,1.08 -1.12,2.76 v 16.92 q 0,0.84 0.32,1.56 0.36,0.68 0.92,1.2 0.56,0.52 1.28,0.8 0.72,0.32 1.52,0.32 h 14.04 q 1.88,0 2.88,-1 1,-1.04 1,-2.96 z m -3.48,-0.36 q 0,0.4 -0.2,0.56 -0.2,0.12 -0.4,0.16 -0.16,0 -0.2,0 h -13.4 q -0.6,0 -0.68,-0.32 -0.04,-0.36 -0.04,-0.36 v -16.16 q 0,-0.44 0.4,-0.52 0.4,-0.12 0.4,-0.12 h 13.32 q 0,0 0.4,0.12 0.4,0.08 0.4,0.64 z"
         id="path414" />
      <path
         d="m 292.19482,573.76272 v -19.04 q 0,-0.92 -0.6,-1.32 -0.56,-0.44 -1.2,-0.44 -0.6,0 -1.2,0.44 -0.56,0.4 -0.56,1.32 v 18.68 q 0,0 -0.08,0.32 -0.08,0.28 -0.68,0.28 h -12.56 q -0.4,0 -0.56,-0.16 -0.12,-0.16 -0.12,-0.28 0,-0.12 0,-0.16 l 0.04,-18.68 q 0,-0.92 -0.6,-1.32 -0.6,-0.44 -1.2,-0.44 -0.6,0 -1.2,0.44 -0.6,0.4 -0.6,1.32 v 19.04 q 0,0.84 0.32,1.56 0.32,0.72 0.88,1.24 0.56,0.48 1.28,0.76 0.76,0.28 1.56,0.28 h 13.04 q 0.8,0 1.52,-0.24 0.72,-0.24 1.28,-0.72 0.56,-0.48 0.88,-1.2 0.36,-0.72 0.36,-1.68 z"
         id="path416" />
      <path
         d="m 326.30212,575.76272 q 0,-0.64 -0.48,-1.2 -0.44,-0.6 -1.36,-0.6 h -11.44 q -0.6,0 -0.68,-0.2 -0.08,-0.24 -0.12,-0.4 v -18.56 q 0,-0.88 -0.56,-1.32 -0.56,-0.48 -1.24,-0.48 -0.64,0 -1.2,0.48 -0.56,0.44 -0.56,1.32 v 18.92 0.12 q 0,0.84 0.36,1.52 0.36,0.68 0.92,1.2 0.6,0.48 1.32,0.72 0.72,0.28 1.48,0.28 h 11.76 q 0.88,0 1.32,-0.6 0.48,-0.56 0.48,-1.2 z"
         id="path418" />
      <path
         d="m 330.50207,575.80272 v -21.08 q 0,-0.92 -0.6,-1.32 -0.56,-0.44 -1.2,-0.44 -0.6,0 -1.2,0.44 -0.56,0.4 -0.56,1.32 v 21.08 q 0,0.88 0.56,1.32 0.56,0.48 1.24,0.48 0.64,0 1.2,-0.48 0.56,-0.44 0.56,-1.32 z"
         id="path420" />
      <path
         d="m 353.74205,574.80272 q -0.84,-1.04 -1.8,-2.32 -0.96,-1.32 -2,-2.6 -1,-1.32 -2.04,-2.52 -1.04,-1.2 -2,-2.04 0.84,-0.72 1.88,-1.92 1.08,-1.24 2.12,-2.6 1.08,-1.36 2.04,-2.68 1,-1.32 1.68,-2.24 0.52,-0.72 0.36,-1.4 -0.16,-0.68 -0.68,-1.08 -0.52,-0.44 -1.24,-0.44 -0.68,0 -1.2,0.68 -0.28,0.28 -0.52,0.6 -0.2,0.32 -0.44,0.64 -0.44,0.52 -0.96,1.2 -0.52,0.68 -1.12,1.48 -0.44,0.56 -1.12,1.52 -0.68,0.92 -1.48,1.84 -0.8,0.92 -1.64,1.68 -0.84,0.72 -1.64,0.88 -0.44,0.08 -0.68,0.12 -0.24,0 -0.24,0 h -0.96 -5.32 v -8.88 q 0,-0.92 -0.6,-1.32 -0.6,-0.44 -1.2,-0.44 -0.6,0 -1.2,0.44 -0.6,0.4 -0.6,1.32 v 21.12 q 0,0.88 0.56,1.32 0.56,0.48 1.24,0.48 0.64,0 1.2,-0.48 0.56,-0.44 0.56,-1.32 v -8.76 h 6.28 q 0.72,0 1.48,0.32 0.76,0.28 1.2,0.76 0.28,0.32 0.76,0.84 0.48,0.52 1,1.2 0.56,0.68 1.16,1.44 0.64,0.72 1.24,1.44 0.76,0.96 1.52,1.92 0.76,0.92 1.16,1.44 0.44,0.48 0.48,0.56 0.52,0.64 1.24,0.64 0.72,0.04 1.24,-0.36 0.56,-0.36 0.72,-1.04 0.16,-0.68 -0.44,-1.44 z"
         id="path422" />
      <path
         d="m 378.18201,554.76272 q 0,-0.64 -0.44,-1.2 -0.44,-0.6 -1.36,-0.6 h -17.56 q -0.76,0 -1.48,0.28 -0.72,0.24 -1.28,0.76 -0.56,0.52 -0.92,1.24 -0.32,0.72 -0.32,1.6 v 16.88 q 0,1.8 1.2,2.84 1.24,1.04 2.92,1.04 h 17.4 q 0.88,0 1.32,-0.6 0.48,-0.56 0.48,-1.2 0,-0.64 -0.48,-1.2 -0.44,-0.6 -1.36,-0.6 h -17.24 q 0,0 -0.32,0 -0.32,-0.04 -0.32,-0.52 v -6.36 h 17.76 q 0.88,0 1.32,-0.56 0.48,-0.56 0.48,-1.2 0,-0.64 -0.48,-1.2 -0.44,-0.6 -1.36,-0.6 h -17.76 v -6.52 q 0,-0.52 0.72,-0.52 h 17.32 q 0.88,0 1.32,-0.56 0.44,-0.56 0.44,-1.2 z"
         id="path424" />
    </g>
  </g>
</svg>
